<svg xmlns="http://www.w3.org/2000/svg" style="display: none;"><symbol id="star-alt-3" viewBox="0 0 24 24" fill="none" xmlns="http://www.w3.org/2000/svg"><path d="M12 3L14.0357 8.16153C14.2236 8.63799 14.3175 8.87622 14.4614 9.0771C14.5889 9.25516 14.7448 9.41106 14.9229 9.53859C15.1238 9.68245 15.362 9.77641 15.8385 9.96432L21 12L15.8385 14.0357C15.362 14.2236 15.1238 14.3175 14.9229 14.4614C14.7448 14.5889 14.5889 14.7448 14.4614 14.9229C14.3175 15.1238 14.2236 15.362 14.0357 15.8385L12 21L9.96432 15.8385C9.77641 15.362 9.68245 15.1238 9.53859 14.9229C9.41106 14.7448 9.25516 14.5889 9.0771 14.4614C8.87622 14.3175 8.63799 14.2236 8.16153 14.0357L3 12L8.16153 9.96432C8.63799 9.77641 8.87622 9.68245 9.0771 9.53859C9.25516 9.41106 9.41106 9.25516 9.53859 9.0771C9.68245 8.87622 9.77641 8.63799 9.96432 8.16153L12 3Z" stroke="currentColor" stroke-width="2" stroke-linecap="round" stroke-linejoin="round"/></symbol><symbol id="certificate-check" viewBox="0 0 24 24" fill="none" xmlns="http://www.w3.org/2000/svg"><path d="M9 12L11 14L15 10M12 3L13.9101 4.87147L16.5 4.20577L17.2184 6.78155L19.7942 7.5L19.1285 10.0899L21 12L19.1285 13.9101L19.7942 16.5L17.2184 17.2184L16.5 19.7942L13.9101 19.1285L12 21L10.0899 19.1285L7.5 19.7942L6.78155 17.2184L4.20577 16.5L4.87147 13.9101L3 12L4.87147 10.0899L4.20577 7.5L6.78155 6.78155L7.5 4.20577L10.0899 4.87147L12 3Z" stroke="currentColor" stroke-width="2" stroke-linecap="round" stroke-linejoin="round"/></symbol><symbol id="user" viewBox="0 0 24 24" fill="none" xmlns="http://www.w3.org/2000/svg"><path d="M16 7C16 9.20914 14.2091 11 12 11C9.79086 11 8 9.20914 8 7C8 4.79086 9.79086 3 12 3C14.2091 3 16 4.79086 16 7Z" stroke="currentColor" stroke-width="2" stroke-linecap="round" stroke-linejoin="round"/>
<path d="M12 14C8.13401 14 5 17.134 5 21H19C19 17.134 15.866 14 12 14Z" stroke="currentColor" stroke-width="2" stroke-linecap="round" stroke-linejoin="round"/></symbol><symbol id="map-location-pin" viewBox="0 0 24 24" fill="none" xmlns="http://www.w3.org/2000/svg"><path d="M12 6H12.01M9 20L3 17V4L5 5M9 20L15 17M9 20V14M15 17L21 20V7L19 6M15 17V14M15 6.2C15 7.96731 13.5 9.4 12 11C10.5 9.4 9 7.96731 9 6.2C9 4.43269 10.3431 3 12 3C13.6569 3 15 4.43269 15 6.2Z" stroke="currentColor" stroke-width="2" stroke-linecap="round" stroke-linejoin="round"/></symbol><symbol id="prescription-bottle-medical" viewBox="0 0 24 24" fill="none" xmlns="http://www.w3.org/2000/svg"><path d="M10 14H14M12 12V16M7 8H17V16.8C17 17.9201 17 18.4802 16.782 18.908C16.5903 19.2843 16.2843 19.5903 15.908 19.782C15.4802 20 14.9201 20 13.8 20H10.2C9.07989 20 8.51984 20 8.09202 19.782C7.71569 19.5903 7.40973 19.2843 7.21799 18.908C7 18.4802 7 17.9201 7 16.8V8ZM6 4H18V8H6V4Z" stroke="currentColor" stroke-width="2" stroke-linecap="round" stroke-linejoin="round"/></symbol><symbol id="send" viewBox="0 0 24 24" fill="none" xmlns="http://www.w3.org/2000/svg"><path d="M10.3009 13.6949L20.102 3.89742M10.5795 14.1355L12.8019 18.5804C13.339 19.6545 13.6075 20.1916 13.9458 20.3356C14.2394 20.4606 14.575 20.4379 14.8492 20.2747C15.1651 20.0866 15.3591 19.5183 15.7472 18.3818L19.9463 6.08434C20.2845 5.09409 20.4535 4.59896 20.3378 4.27142C20.2371 3.98648 20.013 3.76234 19.7281 3.66167C19.4005 3.54595 18.9054 3.71502 17.9151 4.05315L5.61763 8.2523C4.48114 8.64037 3.91289 8.83441 3.72478 9.15032C3.56153 9.42447 3.53891 9.76007 3.66389 10.0536C3.80791 10.3919 4.34498 10.6605 5.41912 11.1975L9.86397 13.42C10.041 13.5085 10.1295 13.5527 10.2061 13.6118C10.2742 13.6643 10.3352 13.7253 10.3876 13.7933C10.4468 13.87 10.491 13.9585 10.5795 14.1355Z" stroke="currentColor" stroke-width="2" stroke-linecap="round" stroke-linejoin="round"/></symbol><symbol id="receipt-alt-1" viewBox="0 0 24 24" fill="none" xmlns="http://www.w3.org/2000/svg"><path d="M9 11H15M9 7H13M9 15H15M5 6.2V21L7.5 19L10 21L12 19L14 21L16.5 19L19 21V6.2C19 5.0799 19 4.51984 18.782 4.09202C18.5903 3.71569 18.2843 3.40973 17.908 3.21799C17.4802 3 16.9201 3 15.8 3H8.2C7.0799 3 6.51984 3 6.09202 3.21799C5.71569 3.40973 5.40973 3.71569 5.21799 4.09202C5 4.51984 5 5.0799 5 6.2Z" stroke="currentColor" stroke-width="2" stroke-linecap="round" stroke-linejoin="round"/></symbol><symbol id="calendar" viewBox="0 0 24 24" fill="none" xmlns="http://www.w3.org/2000/svg"><path d="M3 10H21M7 3V5M17 3V5M6.2 21H17.8C18.9201 21 19.4802 21 19.908 20.782C20.2843 20.5903 20.5903 20.2843 20.782 19.908C21 19.4802 21 18.9201 21 17.8V8.2C21 7.07989 21 6.51984 20.782 6.09202C20.5903 5.71569 20.2843 5.40973 19.908 5.21799C19.4802 5 18.9201 5 17.8 5H6.2C5.0799 5 4.51984 5 4.09202 5.21799C3.71569 5.40973 3.40973 5.71569 3.21799 6.09202C3 6.51984 3 7.07989 3 8.2V17.8C3 18.9201 3 19.4802 3.21799 19.908C3.40973 20.2843 3.71569 20.5903 4.09202 20.782C4.51984 21 5.07989 21 6.2 21Z" stroke="currentColor" stroke-width="2" stroke-linecap="round" stroke-linejoin="round"/></symbol><symbol id="monitor" viewBox="0 0 24 24" fill="none" xmlns="http://www.w3.org/2000/svg"><path d="M12 17V21M8 21H16M6.2 17H17.8C18.9201 17 19.4802 17 19.908 16.782C20.2843 16.5903 20.5903 16.2843 20.782 15.908C21 15.4802 21 14.9201 21 13.8V6.2C21 5.0799 21 4.51984 20.782 4.09202C20.5903 3.71569 20.2843 3.40973 19.908 3.21799C19.4802 3 18.9201 3 17.8 3H6.2C5.0799 3 4.51984 3 4.09202 3.21799C3.71569 3.40973 3.40973 3.71569 3.21799 4.09202C3 4.51984 3 5.07989 3 6.2V13.8C3 14.9201 3 15.4802 3.21799 15.908C3.40973 16.2843 3.71569 16.5903 4.09202 16.782C4.51984 17 5.07989 17 6.2 17Z" stroke="currentColor" stroke-width="2" stroke-linecap="round"/></symbol><symbol id="monitor-medical" viewBox="0 0 24 24" fill="none" xmlns="http://www.w3.org/2000/svg"><path d="M12 17V21M8 21H16M10 10H14M12 8V12M6.2 17H17.8C18.9201 17 19.4802 17 19.908 16.782C20.2843 16.5903 20.5903 16.2843 20.782 15.908C21 15.4802 21 14.9201 21 13.8V6.2C21 5.0799 21 4.51984 20.782 4.09202C20.5903 3.71569 20.2843 3.40973 19.908 3.21799C19.4802 3 18.9201 3 17.8 3H6.2C5.0799 3 4.51984 3 4.09202 3.21799C3.71569 3.40973 3.40973 3.71569 3.21799 4.09202C3 4.51984 3 5.07989 3 6.2V13.8C3 14.9201 3 15.4802 3.21799 15.908C3.40973 16.2843 3.71569 16.5903 4.09202 16.782C4.51984 17 5.07989 17 6.2 17Z" stroke="currentColor" stroke-width="2" stroke-linecap="round" stroke-linejoin="round"/></symbol><symbol id="chart-line" viewBox="0 0 24 24" fill="none" xmlns="http://www.w3.org/2000/svg"><path d="M21 21H6.2C5.07989 21 4.51984 21 4.09202 20.782C3.71569 20.5903 3.40973 20.2843 3.21799 19.908C3 19.4802 3 18.9201 3 17.8V3M7 15L12 9L16 13L21 7" stroke="currentColor" stroke-width="2" stroke-linecap="round" stroke-linejoin="round"/></symbol><symbol id="globe-alt" viewBox="0 0 24 24" fill="none" xmlns="http://www.w3.org/2000/svg"><path d="M21 12C21 16.9706 16.9706 21 12 21M21 12C21 7.02944 16.9706 3 12 3M21 12C21 13.6569 16.9706 15 12 15C7.02944 15 3 13.6569 3 12M21 12C21 10.3431 16.9706 9 12 9C7.02944 9 3 10.3431 3 12M12 21C7.02944 21 3 16.9706 3 12M12 21C10.3431 21 9 16.9706 9 12C9 7.02944 10.3431 3 12 3M12 21C13.6569 21 15 16.9706 15 12C15 7.02944 13.6569 3 12 3M3 12C3 7.02944 7.02944 3 12 3" stroke="currentColor" stroke-width="2" stroke-linecap="round" stroke-linejoin="round"/></symbol><symbol id="route" viewBox="0 0 24 24" fill="none" xmlns="http://www.w3.org/2000/svg"><path d="M6 21C7.5 19.4 9 17.9673 9 16.2C9 14.4327 7.65685 13 6 13C4.34315 13 3 14.4327 3 16.2C3 17.9673 4.5 19.4 6 21ZM6 21H17.5C18.8807 21 20 19.8807 20 18.5C20 17.1193 18.8807 16 17.5 16H15M18 11C19.5 9.4 21 7.96731 21 6.2C21 4.43269 19.6569 3 18 3C16.3431 3 15 4.43269 15 6.2C15 7.96731 16.5 9.4 18 11ZM18 11H14.5C13.1193 11 12 12.1193 12 13.5C12 14.8807 13.1193 16 14.5 16H15.6" stroke="currentColor" stroke-width="2" stroke-linecap="round" stroke-linejoin="round"/></symbol><symbol id="credit-card" viewBox="0 0 24 24" fill="none" xmlns="http://www.w3.org/2000/svg"><path d="M3 9H21M7 15H9M6.2 19H17.8C18.9201 19 19.4802 19 19.908 18.782C20.2843 18.5903 20.5903 18.2843 20.782 17.908C21 17.4802 21 16.9201 21 15.8V8.2C21 7.0799 21 6.51984 20.782 6.09202C20.5903 5.71569 20.2843 5.40973 19.908 5.21799C19.4802 5 18.9201 5 17.8 5H6.2C5.0799 5 4.51984 5 4.09202 5.21799C3.71569 5.40973 3.40973 5.71569 3.21799 6.09202C3 6.51984 3 7.07989 3 8.2V15.8C3 16.9201 3 17.4802 3.21799 17.908C3.40973 18.2843 3.71569 18.5903 4.09202 18.782C4.51984 19 5.07989 19 6.2 19Z" stroke="currentColor" stroke-width="2" stroke-linecap="round" stroke-linejoin="round"/></symbol><symbol id="sun" viewBox="0 0 24 24" fill="none" xmlns="http://www.w3.org/2000/svg"><path d="M12 3V4M12 20V21M4 12H3M6.31412 6.31412L5.5 5.5M17.6859 6.31412L18.5 5.5M6.31412 17.69L5.5 18.5001M17.6859 17.69L18.5 18.5001M21 12H20M16 12C16 14.2091 14.2091 16 12 16C9.79086 16 8 14.2091 8 12C8 9.79086 9.79086 8 12 8C14.2091 8 16 9.79086 16 12Z" stroke="currentColor" stroke-width="2" stroke-linecap="round" stroke-linejoin="round"/></symbol><symbol id="location-pin" viewBox="0 0 24 24" fill="none" xmlns="http://www.w3.org/2000/svg"><path d="M12 21C15.5 17.4 19 14.1764 19 10.2C19 6.22355 15.866 3 12 3C8.13401 3 5 6.22355 5 10.2C5 14.1764 8.5 17.4 12 21Z" stroke="currentColor" stroke-width="2" stroke-linecap="round" stroke-linejoin="round"/>
<path d="M12 13C13.6569 13 15 11.6569 15 10C15 8.34315 13.6569 7 12 7C10.3431 7 9 8.34315 9 10C9 11.6569 10.3431 13 12 13Z" stroke="currentColor" stroke-width="2" stroke-linecap="round" stroke-linejoin="round"/></symbol><symbol id="map-pin-alt" viewBox="0 0 24 24" fill="none" xmlns="http://www.w3.org/2000/svg"><path d="M5.7 15C4.03377 15.6353 3 16.5205 3 17.4997C3 19.4329 7.02944 21 12 21C16.9706 21 21 19.4329 21 17.4997C21 16.5205 19.9662 15.6353 18.3 15M12 9H12.01M18 9C18 13.0637 13.5 15 12 18C10.5 15 6 13.0637 6 9C6 5.68629 8.68629 3 12 3C15.3137 3 18 5.68629 18 9ZM13 9C13 9.55228 12.5523 10 12 10C11.4477 10 11 9.55228 11 9C11 8.44772 11.4477 8 12 8C12.5523 8 13 8.44772 13 9Z" stroke="currentColor" stroke-width="2" stroke-linecap="round" stroke-linejoin="round"/></symbol><symbol id="unlock-alt" viewBox="0 0 24 24" fill="none" xmlns="http://www.w3.org/2000/svg"><path d="M16.584 6C15.8124 4.2341 14.0503 3 12 3C9.23858 3 7 5.23858 7 8V10.0288M12 14.5V16.5M7 10.0288C7.47142 10 8.05259 10 8.8 10H15.2C16.8802 10 17.7202 10 18.362 10.327C18.9265 10.6146 19.3854 11.0735 19.673 11.638C20 12.2798 20 13.1198 20 14.8V16.2C20 17.8802 20 18.7202 19.673 19.362C19.3854 19.9265 18.9265 20.3854 18.362 20.673C17.7202 21 16.8802 21 15.2 21H8.8C7.11984 21 6.27976 21 5.63803 20.673C5.07354 20.3854 4.6146 19.9265 4.32698 19.362C4 18.7202 4 17.8802 4 16.2V14.8C4 13.1198 4 12.2798 4.32698 11.638C4.6146 11.0735 5.07354 10.6146 5.63803 10.327C5.99429 10.1455 6.41168 10.0647 7 10.0288Z" stroke="currentColor" stroke-width="2" stroke-linecap="round" stroke-linejoin="round"/></symbol><symbol id="circle-percentage" viewBox="0 0 24 24" fill="none" xmlns="http://www.w3.org/2000/svg"><path d="M15.5 8.5L8.5 15.5M9.5 9.5H9.51M14.5 14.5H14.51M21 12C21 16.9706 16.9706 21 12 21C7.02944 21 3 16.9706 3 12C3 7.02944 7.02944 3 12 3C16.9706 3 21 7.02944 21 12ZM10 9.5C10 9.77614 9.77614 10 9.5 10C9.22386 10 9 9.77614 9 9.5C9 9.22386 9.22386 9 9.5 9C9.77614 9 10 9.22386 10 9.5ZM15 14.5C15 14.7761 14.7761 15 14.5 15C14.2239 15 14 14.7761 14 14.5C14 14.2239 14.2239 14 14.5 14C14.7761 14 15 14.2239 15 14.5Z" stroke="currentColor" stroke-width="2" stroke-linecap="round" stroke-linejoin="round"/></symbol><symbol id="map-pin" viewBox="0 0 24 24" fill="none" xmlns="http://www.w3.org/2000/svg"><path d="M11 16C11 16.5523 11.4477 17 12 17C12.5523 17 13 16.5523 13 16H11ZM8.21567 14.3922C8.75496 14.2731 9.09558 13.7394 8.97647 13.2001C8.85735 12.6608 8.32362 12.3202 7.78433 12.4393L8.21567 14.3922ZM16.2157 12.4393C15.6764 12.3202 15.1426 12.6608 15.0235 13.2001C14.9044 13.7394 15.245 14.2731 15.7843 14.3922L16.2157 12.4393ZM15 7C15 8.65685 13.6569 10 12 10V12C14.7614 12 17 9.76142 17 7H15ZM12 10C10.3431 10 9 8.65685 9 7H7C7 9.76142 9.23858 12 12 12V10ZM9 7C9 5.34315 10.3431 4 12 4V2C9.23858 2 7 4.23858 7 7H9ZM12 4C13.6569 4 15 5.34315 15 7H17C17 4.23858 14.7614 2 12 2V4ZM11 11V16H13V11H11ZM20 17C20 17.2269 19.9007 17.5183 19.5683 17.8676C19.2311 18.222 18.6958 18.5866 17.9578 18.9146C16.4844 19.5694 14.3789 20 12 20V22C14.5917 22 16.9861 21.5351 18.7701 20.7422C19.6608 20.3463 20.4435 19.8491 21.0171 19.2463C21.5956 18.6385 22 17.8777 22 17H20ZM12 20C9.62114 20 7.51558 19.5694 6.04218 18.9146C5.30422 18.5866 4.76892 18.222 4.43166 17.8676C4.0993 17.5183 4 17.2269 4 17H2C2 17.8777 2.40438 18.6385 2.98287 19.2463C3.55645 19.8491 4.33918 20.3463 5.2299 20.7422C7.01386 21.5351 9.40829 22 12 22V20ZM4 17C4 16.6824 4.20805 16.2134 4.96356 15.6826C5.70129 15.1644 6.81544 14.7015 8.21567 14.3922L7.78433 12.4393C6.22113 12.7846 4.83528 13.3285 3.81386 14.0461C2.81023 14.7512 2 15.747 2 17H4ZM15.7843 14.3922C17.1846 14.7015 18.2987 15.1644 19.0364 15.6826C19.792 16.2134 20 16.6824 20 17H22C22 15.747 21.1898 14.7512 20.1861 14.0461C19.1647 13.3285 17.7789 12.7846 16.2157 12.4393L15.7843 14.3922Z" fill="currentColor"/></symbol><symbol id="circle-bolt" viewBox="0 0 24 24" fill="none" xmlns="http://www.w3.org/2000/svg"><path d="M12.5 7L9 12H15L11.5 17M21 12C21 16.9706 16.9706 21 12 21C7.02944 21 3 16.9706 3 12C3 7.02944 7.02944 3 12 3C16.9706 3 21 7.02944 21 12Z" stroke="currentColor" stroke-width="2" stroke-linecap="round" stroke-linejoin="round"/></symbol><symbol id="prescription-bottle" viewBox="0 0 24 24" fill="none" xmlns="http://www.w3.org/2000/svg"><path d="M7 11H10M7 14H10M7.00005 17H10M7 8H17V16.8C17 17.9201 17 18.4802 16.782 18.908C16.5903 19.2843 16.2843 19.5903 15.908 19.782C15.4802 20 14.9201 20 13.8 20H10.2C9.07989 20 8.51984 20 8.09202 19.782C7.71569 19.5903 7.40973 19.2843 7.21799 18.908C7 18.4802 7 17.9201 7 16.8V8ZM6 4H18V8H6V4Z" stroke="currentColor" stroke-width="2" stroke-linecap="round" stroke-linejoin="round"/></symbol><symbol id="microscope" viewBox="0 0 24 24" fill="none" xmlns="http://www.w3.org/2000/svg"><path d="M3 20C2.44772 20 2 20.4477 2 21C2 21.5523 2.44772 22 3 22V20ZM21 22C21.5523 22 22 21.5523 22 21C22 20.4477 21.5523 20 21 20V22ZM7 17C6.44772 17 6 17.4477 6 18C6 18.5523 6.44772 19 7 19V17ZM14 19C14.5523 19 15 18.5523 15 18C15 17.4477 14.5523 17 14 17V19ZM9 14C8.44772 14 8 14.4477 8 15C8 15.5523 8.44772 16 9 16V14ZM12 16C12.5523 16 13 15.5523 13 15C13 14.4477 12.5523 14 12 14V16ZM8 5V4C7.44772 4 7 4.44772 7 5H8ZM13 5H14C14 4.44772 13.5523 4 13 4V5ZM13 12V13C13.5523 13 14 12.5523 14 12H13ZM8 12H7C7 12.5523 7.44772 13 8 13V12ZM9 5V6C9.45887 6 9.85885 5.6877 9.97014 5.24254L9 5ZM11.5 3L12.4701 2.75746C12.3589 2.3123 11.9589 2 11.5 2V3ZM9.5 3V2C9.04113 2 8.64115 2.3123 8.52986 2.75746L9.5 3ZM12 5L11.0299 5.24254C11.1411 5.6877 11.5411 6 12 6V5ZM13 7C12.4477 7 12 7.44772 12 8C12 8.55228 12.4477 9 13 9V7ZM16.0915 20.1435C15.6184 20.4285 15.466 21.0431 15.7511 21.5161C16.0361 21.9892 16.6506 22.1416 17.1237 21.8565L16.0915 20.1435ZM3 22H21V20H3V22ZM7 19H14V17H7V19ZM9 16H12V14H9V16ZM12 5V12H14V5H12ZM13 11H8V13H13V11ZM9 12V5H7V12H9ZM8 6H9V4H8V6ZM9.97014 5.24254L10.4701 3.24254L8.52986 2.75746L8.02986 4.75746L9.97014 5.24254ZM9.5 4H11.5V2H9.5V4ZM10.5299 3.24254L11.0299 5.24254L12.9701 4.75746L12.4701 2.75746L10.5299 3.24254ZM12 6H13V4H12V6ZM13 9C16.3137 9 19 11.6863 19 15H21C21 10.5817 17.4183 7 13 7V9ZM19 15C19 17.1814 17.8365 19.092 16.0915 20.1435L17.1237 21.8565C19.4443 20.4582 21 17.9113 21 15H19Z" fill="currentColor"/></symbol><symbol id="compass" viewBox="0 0 24 24" fill="none" xmlns="http://www.w3.org/2000/svg"><path d="M12 12H12.01M21 12C21 16.9706 16.9706 21 12 21C7.02944 21 3 16.9706 3 12C3 7.02944 7.02944 3 12 3C16.9706 3 21 7.02944 21 12ZM16 8L9.5 9.5L8 16L14.5 14.5L16 8Z" stroke="currentColor" stroke-width="2" stroke-linecap="round" stroke-linejoin="round"/></symbol><symbol id="microphone-slash" viewBox="0 0 24 24" fill="none" xmlns="http://www.w3.org/2000/svg"><path d="M15 9.4V5C15 3.34315 13.6569 2 12 2C10.8224 2 9.80325 2.67852 9.3122 3.66593M12 19V22M8 22H16M3 3L21 21M5.00043 10C5.00043 10 3.50062 19 12.0401 19C14.51 19 16.1333 18.2471 17.1933 17.1768M19.0317 13C19.2365 11.3477 19 10 19 10M15 6H13M12 15C10.3431 15 9 13.6569 9 12V9L14.1226 14.12C13.5796 14.6637 12.8291 15 12 15Z" stroke="currentColor" stroke-width="2" stroke-linecap="round" stroke-linejoin="round"/></symbol><symbol id="link-alt" viewBox="0 0 24 24" fill="none" xmlns="http://www.w3.org/2000/svg"><path d="M14 12C14 14.7614 11.7614 17 9 17H7C4.23858 17 2 14.7614 2 12C2 9.23858 4.23858 7 7 7H7.5M10 12C10 9.23858 12.2386 7 15 7H17C19.7614 7 22 9.23858 22 12C22 14.7614 19.7614 17 17 17H16.5" stroke="currentColor" stroke-width="2" stroke-linecap="round"/></symbol><symbol id="heart" viewBox="0 0 24 24" fill="none" xmlns="http://www.w3.org/2000/svg"><path fill-rule="evenodd" clip-rule="evenodd" d="M12 6.00019C10.2006 3.90317 7.19377 3.2551 4.93923 5.17534C2.68468 7.09558 2.36727 10.3061 4.13778 12.5772C5.60984 14.4654 10.0648 18.4479 11.5249 19.7369C11.6882 19.8811 11.7699 19.9532 11.8652 19.9815C11.9483 20.0062 12.0393 20.0062 12.1225 19.9815C12.2178 19.9532 12.2994 19.8811 12.4628 19.7369C13.9229 18.4479 18.3778 14.4654 19.8499 12.5772C21.6204 10.3061 21.3417 7.07538 19.0484 5.17534C16.7551 3.2753 13.7994 3.90317 12 6.00019Z" stroke="currentColor" stroke-width="2" stroke-linecap="round" stroke-linejoin="round"/></symbol><symbol id="vkontakte" viewBox="0 0 24 24" fill="none" xmlns="http://www.w3.org/2000/svg"><path d="m23.456 5.784c-.27.849-.634 1.588-1.09 2.259l.019-.03q-.672 1.12-1.605 2.588-.8 1.159-.847 1.2c-.138.173-.234.385-.267.618l-.001.007c.027.212.125.397.268.535l.4.446q3.21 3.299 3.611 4.548c.035.092.055.198.055.309 0 .194-.062.373-.167.52l.002-.003c-.176.181-.422.293-.694.293-.03 0-.061-.001-.09-.004h.004-2.631c-.001 0-.003 0-.005 0-.337 0-.647-.118-.89-.314l.003.002c-.354-.291-.669-.606-.951-.948l-.009-.012q-.691-.781-1.226-1.315-1.782-1.694-2.63-1.694c-.021-.002-.045-.003-.07-.003-.165 0-.319.051-.446.138l.003-.002c-.104.13-.167.298-.167.479 0 .036.002.07.007.105v-.004c-.027.314-.043.679-.043 1.048 0 .119.002.237.005.355v-.017 1.159c.01.047.016.101.016.156 0 .242-.11.458-.282.601l-.001.001c-.387.177-.839.281-1.316.281-.102 0-.202-.005-.301-.014l.013.001c-1.574-.03-3.034-.491-4.275-1.268l.035.02c-1.511-.918-2.763-2.113-3.717-3.525l-.027-.042c-.906-1.202-1.751-2.56-2.471-3.992l-.07-.154c-.421-.802-.857-1.788-1.233-2.802l-.06-.185c-.153-.456-.264-.986-.31-1.535l-.002-.025q0-.758.892-.758h2.63c.024-.002.052-.003.081-.003.248 0 .477.085.658.228l-.002-.002c.2.219.348.488.421.788l.003.012c.484 1.367.997 2.515 1.587 3.615l-.067-.137c.482.97 1.015 1.805 1.623 2.576l-.023-.031q.8.982 1.248.982c.009.001.02.001.032.001.148 0 .277-.08.347-.2l.001-.002c.074-.19.117-.411.117-.641 0-.049-.002-.098-.006-.146v.006-3.879c-.021-.457-.133-.884-.32-1.267l.008.019c-.124-.264-.273-.492-.45-.695l.003.004c-.164-.164-.276-.379-.311-.619l-.001-.006c0-.17.078-.323.2-.423l.001-.001c.121-.111.283-.178.46-.178h.008 4.146c.022-.003.047-.004.073-.004.195 0 .37.088.486.226l.001.001c.103.188.164.413.164.651 0 .038-.002.075-.005.112v-.005 5.173c-.002.024-.003.052-.003.08 0 .184.051.357.139.504l-.002-.004c.073.108.195.178.333.178h.001c.176-.012.336-.07.471-.162l-.003.002c.272-.187.506-.4.709-.641l.004-.005c.607-.686 1.167-1.444 1.655-2.25l.039-.07c.344-.57.716-1.272 1.053-1.993l.062-.147.446-.892c.155-.446.571-.76 1.06-.76.019 0 .038 0 .057.001h-.003 2.631q1.066 0 .8.981z" fill="currentColor" /></symbol><symbol id="note-medical" viewBox="0 0 24 24" fill="none" xmlns="http://www.w3.org/2000/svg"><path d="M10 12H14M12 10V14M19.9592 15H16.6C16.0399 15 15.7599 15 15.546 15.109C15.3578 15.2049 15.2049 15.3578 15.109 15.546C15 15.7599 15 16.0399 15 16.6V19.9592M20 14.1031V7.2C20 6.07989 20 5.51984 19.782 5.09202C19.5903 4.71569 19.2843 4.40973 18.908 4.21799C18.4802 4 17.9201 4 16.8 4H7.2C6.0799 4 5.51984 4 5.09202 4.21799C4.71569 4.40973 4.40973 4.71569 4.21799 5.09202C4 5.51984 4 6.0799 4 7.2V16.8C4 17.9201 4 18.4802 4.21799 18.908C4.40973 19.2843 4.71569 19.5903 5.09202 19.782C5.51984 20 6.0799 20 7.2 20H14.1031C14.5923 20 14.8369 20 15.067 19.9447C15.2711 19.8957 15.4662 19.8149 15.6451 19.7053C15.847 19.5816 16.0199 19.4086 16.3658 19.0627L19.0627 16.3658C19.4086 16.0199 19.5816 15.847 19.7053 15.6451C19.8149 15.4662 19.8957 15.2711 19.9447 15.067C20 14.8369 20 14.5923 20 14.1031Z" stroke="currentColor" stroke-width="2" stroke-linecap="round" stroke-linejoin="round"/></symbol><symbol id="fingerprint" viewBox="0 0 24 24" fill="none" xmlns="http://www.w3.org/2000/svg"><path d="M6.89258 17.7897C6.9083 17.7633 6.92441 17.7369 6.9409 17.7107C8.14358 15.7988 8.8398 13.5379 8.8398 11.1034C8.8398 9.14189 10.4299 7.55176 12.3915 7.55176C14.353 7.55176 15.9431 9.14189 15.9431 11.1034C15.9431 12.0065 15.8816 12.8957 15.7626 13.7672M13.8825 19.8437C14.4257 18.7596 14.871 17.6179 15.2069 16.4309M18.6156 17.4359C19.1883 15.4236 19.4949 13.2993 19.4949 11.1033C19.4949 7.18026 16.3147 4 12.3916 4C11.0978 4 9.88477 4.34591 8.83997 4.9503M4.40039 14.9783C4.96924 13.8073 5.28831 12.4926 5.28831 11.1033C5.28831 9.8095 5.63422 8.59646 6.2386 7.55166M12.3915 11.1035C12.3915 14.2265 11.4958 17.1403 9.94727 19.6019" stroke="currentColor" stroke-width="2" stroke-linecap="round" stroke-linejoin="round"/></symbol><symbol id="image-portrait" viewBox="0 0 24 24" fill="none" xmlns="http://www.w3.org/2000/svg"><path d="M15 15.5C14.7164 14.3589 13.481 13.5 12 13.5C10.519 13.5 9.28364 14.3589 9 15.5M12 9.5H12.01M13 9.5C13 10.0523 12.5523 10.5 12 10.5C11.4477 10.5 11 10.0523 11 9.5C11 8.94772 11.4477 8.5 12 8.5C12.5523 8.5 13 8.94772 13 9.5ZM7 21H17C18.1046 21 19 20.1046 19 19V5C19 3.89543 18.1046 3 17 3H7C5.89543 3 5 3.89543 5 5V19C5 20.1046 5.89543 21 7 21Z" stroke="currentColor" stroke-width="2" stroke-linecap="round" stroke-linejoin="round"/></symbol><symbol id="staff-snake" viewBox="0 0 24 24" fill="none" xmlns="http://www.w3.org/2000/svg"><path d="M15 19C16.1046 19 17 18.1046 17 17C17 15.8954 16.1046 15 15 15H10C8.89543 15 8 14.1046 8 13C8 12.2597 8.4022 11.6134 9 11.2676M12 19H10M15 11H17C18.6569 11 20 9.65685 20 8C20 6.34315 18.6569 5 17 5H8M12 3V21M8 5H6C4.89543 5 4 5.89543 4 7C4 8.10457 4.89543 9 6 9C7.10457 9 8 8.10457 8 7V6.5V5Z" stroke="currentColor" stroke-width="2" stroke-linecap="round" stroke-linejoin="round"/></symbol><symbol id="circle-dots-vertical" viewBox="0 0 24 24" fill="none" xmlns="http://www.w3.org/2000/svg"><path d="M12 12H12.01M12 16H12.01M12 8H12.01M21 12C21 16.9706 16.9706 21 12 21C7.02944 21 3 16.9706 3 12C3 7.02944 7.02944 3 12 3C16.9706 3 21 7.02944 21 12Z" stroke="currentColor" stroke-width="2" stroke-linecap="round" stroke-linejoin="round"/></symbol><symbol id="shield-alt" viewBox="0 0 24 24" fill="none" xmlns="http://www.w3.org/2000/svg"><path d="M20 6C20 6 19.1843 6 19.0001 6C16.2681 6 13.8871 4.93485 11.9999 3C10.1128 4.93478 7.73199 6 5.00009 6C4.81589 6 4.00009 6 4.00009 6C4.00009 6 4 8 4 9.16611C4 14.8596 7.3994 19.6436 12 21C16.6006 19.6436 20 14.8596 20 9.16611C20 8 20 6 20 6Z" stroke="currentColor" stroke-width="2" stroke-linecap="round" stroke-linejoin="round"/></symbol><symbol id="credit-card-alt" viewBox="0 0 24 24" fill="none" xmlns="http://www.w3.org/2000/svg"><path d="M3 9H21M6.2 19H17.8C18.9201 19 19.4802 19 19.908 18.782C20.2843 18.5903 20.5903 18.2843 20.782 17.908C21 17.4802 21 16.9201 21 15.8V8.2C21 7.0799 21 6.51984 20.782 6.09202C20.5903 5.71569 20.2843 5.40973 19.908 5.21799C19.4802 5 18.9201 5 17.8 5H6.2C5.0799 5 4.51984 5 4.09202 5.21799C3.71569 5.40973 3.40973 5.71569 3.21799 6.09202C3 6.51984 3 7.07989 3 8.2V15.8C3 16.9201 3 17.4802 3.21799 17.908C3.40973 18.2843 3.71569 18.5903 4.09202 18.782C4.51984 19 5.07989 19 6.2 19Z" stroke="currentColor" stroke-width="2" stroke-linecap="round" stroke-linejoin="round"/></symbol><symbol id="user-heart" viewBox="0 0 24 24" fill="none" xmlns="http://www.w3.org/2000/svg"><path d="M10.5 21H4C4 17.4735 6.60771 14.5561 10 14.0709M16.4976 16.2119C15.7978 15.4328 14.6309 15.2232 13.7541 15.9367C12.8774 16.6501 12.7539 17.843 13.4425 18.6868C13.8312 19.1632 14.7548 19.9983 15.4854 20.6353C15.8319 20.9374 16.0051 21.0885 16.2147 21.1503C16.3934 21.203 16.6018 21.203 16.7805 21.1503C16.9901 21.0885 17.1633 20.9374 17.5098 20.6353C18.2404 19.9983 19.164 19.1632 19.5527 18.6868C20.2413 17.843 20.1329 16.6426 19.2411 15.9367C18.3492 15.2307 17.1974 15.4328 16.4976 16.2119ZM15 7C15 9.20914 13.2091 11 11 11C8.79086 11 7 9.20914 7 7C7 4.79086 8.79086 3 11 3C13.2091 3 15 4.79086 15 7Z" stroke="currentColor" stroke-width="2" stroke-linecap="round" stroke-linejoin="round"/></symbol><symbol id="user-alt-1" viewBox="0 0 24 24" fill="none" xmlns="http://www.w3.org/2000/svg"><path d="M5 21C5 17.134 8.13401 14 12 14C15.866 14 19 17.134 19 21M16 7C16 9.20914 14.2091 11 12 11C9.79086 11 8 9.20914 8 7C8 4.79086 9.79086 3 12 3C14.2091 3 16 4.79086 16 7Z" stroke="currentColor" stroke-width="2" stroke-linecap="round" stroke-linejoin="round"/></symbol><symbol id="capsule" viewBox="0 0 24 24" fill="none" xmlns="http://www.w3.org/2000/svg"><path d="M15.5005 8.50004L8.50053 15.5M11.5005 4.50004L19.5005 12.5C21.4335 14.433 21.4335 17.567 19.5005 19.5C17.5675 21.433 14.4335 21.433 12.5005 19.5L4.50053 11.5C2.56753 9.56704 2.56753 6.43304 4.50053 4.50004C6.43353 2.56704 9.56753 2.56704 11.5005 4.50004Z" stroke="currentColor" stroke-width="2" stroke-linecap="round" stroke-linejoin="round"/></symbol><symbol id="chart-mixed" viewBox="0 0 24 24" fill="none" xmlns="http://www.w3.org/2000/svg"><path d="M3 21V17M9 21V13M15 21V15M21 21V11M8.43934 5.56066C8.71079 5.83211 9.08579 6 9.5 6C9.91421 6 10.2892 5.83211 10.5607 5.56066M8.43934 5.56066C8.16789 5.28921 8 4.91421 8 4.5C8 3.67157 8.67157 3 9.5 3C10.3284 3 11 3.67157 11 4.5C11 4.91421 10.8321 5.28921 10.5607 5.56066M8.43934 5.56066L5.56066 8.43934M5.56066 8.43934C5.28921 8.16789 4.91421 8 4.5 8C3.67157 8 3 8.67157 3 9.5C3 10.3284 3.67157 11 4.5 11C5.32843 11 6 10.3284 6 9.5C6 9.08579 5.83211 8.71079 5.56066 8.43934ZM10.5607 5.56066L13.4393 8.43934M13.4393 8.43934C13.1679 8.71079 13 9.08579 13 9.5C13 10.3284 13.6716 11 14.5 11C15.3284 11 16 10.3284 16 9.5C16 9.08579 15.8321 8.71079 15.5607 8.43934M13.4393 8.43934C13.7108 8.16789 14.0858 8 14.5 8C14.9142 8 15.2892 8.16789 15.5607 8.43934M15.5607 8.43934L18.4393 5.56066M18.4393 5.56066C18.7108 5.83211 19.0858 6 19.5 6C20.3284 6 21 5.32843 21 4.5C21 3.67157 20.3284 3 19.5 3C18.6716 3 18 3.67157 18 4.5C18 4.91421 18.1679 5.28921 18.4393 5.56066Z" stroke="currentColor" stroke-width="2" stroke-linecap="round" stroke-linejoin="round"/></symbol><symbol id="link-alt-1" viewBox="0 0 24 24" fill="none" xmlns="http://www.w3.org/2000/svg"><path d="M9.16488 17.6505C8.92513 17.8743 8.73958 18.0241 8.54996 18.1336C7.62175 18.6695 6.47816 18.6695 5.54996 18.1336C5.20791 17.9361 4.87912 17.6073 4.22153 16.9498C3.56394 16.2922 3.23514 15.9634 3.03767 15.6213C2.50177 14.6931 2.50177 13.5495 3.03767 12.6213C3.23514 12.2793 3.56394 11.9505 4.22153 11.2929L7.04996 8.46448C7.70755 7.80689 8.03634 7.47809 8.37838 7.28062C9.30659 6.74472 10.4502 6.74472 11.3784 7.28061C11.7204 7.47809 12.0492 7.80689 12.7068 8.46448C13.3644 9.12207 13.6932 9.45086 13.8907 9.7929C14.4266 10.7211 14.4266 11.8647 13.8907 12.7929C13.7812 12.9825 13.6314 13.1681 13.4075 13.4078M10.5919 10.5922C10.368 10.8319 10.2182 11.0175 10.1087 11.2071C9.57284 12.1353 9.57284 13.2789 10.1087 14.2071C10.3062 14.5492 10.635 14.878 11.2926 15.5355C11.9502 16.1931 12.279 16.5219 12.621 16.7194C13.5492 17.2553 14.6928 17.2553 15.621 16.7194C15.9631 16.5219 16.2919 16.1931 16.9495 15.5355L19.7779 12.7071C20.4355 12.0495 20.7643 11.7207 20.9617 11.3787C21.4976 10.4505 21.4976 9.30689 20.9617 8.37869C20.7643 8.03665 20.4355 7.70785 19.7779 7.05026C19.1203 6.39267 18.7915 6.06388 18.4495 5.8664C17.5212 5.3305 16.3777 5.3305 15.4495 5.8664C15.2598 5.97588 15.0743 6.12571 14.8345 6.34955" stroke="currentColor" stroke-width="2" stroke-linecap="round"/></symbol><symbol id="id-badge" viewBox="0 0 24 24" fill="none" xmlns="http://www.w3.org/2000/svg"><path d="M14 6H10M15 17C14.7164 15.8589 13.481 15 12 15C10.519 15 9.28364 15.8589 9 17M12 11H12.01M8.2 21H15.8C16.9201 21 17.4802 21 17.908 20.782C18.2843 20.5903 18.5903 20.2843 18.782 19.908C19 19.4802 19 18.9201 19 17.8V6.2C19 5.0799 19 4.51984 18.782 4.09202C18.5903 3.71569 18.2843 3.40973 17.908 3.21799C17.4802 3 16.9201 3 15.8 3H8.2C7.0799 3 6.51984 3 6.09202 3.21799C5.71569 3.40973 5.40973 3.71569 5.21799 4.09202C5 4.51984 5 5.07989 5 6.2V17.8C5 18.9201 5 19.4802 5.21799 19.908C5.40973 20.2843 5.71569 20.5903 6.09202 20.782C6.51984 21 7.07989 21 8.2 21ZM13 11C13 11.5523 12.5523 12 12 12C11.4477 12 11 11.5523 11 11C11 10.4477 11.4477 10 12 10C12.5523 10 13 10.4477 13 11Z" stroke="currentColor" stroke-width="2" stroke-linecap="round" stroke-linejoin="round"/></symbol><symbol id="microphone" viewBox="0 0 24 24" fill="none" xmlns="http://www.w3.org/2000/svg"><path d="M19 10V12C19 15.866 15.866 19 12 19M5 10V12C5 15.866 8.13401 19 12 19M12 19V22M8 22H16M15 6H13M15 10H13M12 15C10.3431 15 9 13.6569 9 12V5C9 3.34315 10.3431 2 12 2C13.6569 2 15 3.34315 15 5V12C15 13.6569 13.6569 15 12 15Z" stroke="currentColor" stroke-width="2" stroke-linecap="round" stroke-linejoin="round"/></symbol><symbol id="user-check" viewBox="0 0 24 24" fill="none" xmlns="http://www.w3.org/2000/svg"><path d="M14.9999 15.2547C13.8661 14.4638 12.4872 14 10.9999 14C7.40399 14 4.44136 16.7114 4.04498 20.2013C4.01693 20.4483 4.0029 20.5718 4.05221 20.6911C4.09256 20.7886 4.1799 20.8864 4.2723 20.9375C4.38522 21 4.52346 21 4.79992 21H9.94465M13.9999 19.2857L15.7999 21L19.9999 17M14.9999 7C14.9999 9.20914 13.2091 11 10.9999 11C8.79078 11 6.99992 9.20914 6.99992 7C6.99992 4.79086 8.79078 3 10.9999 3C13.2091 3 14.9999 4.79086 14.9999 7Z" stroke="currentColor" stroke-width="2" stroke-linecap="round" stroke-linejoin="round"/></symbol><symbol id="battery-bolt" viewBox="0 0 24 24" fill="none" xmlns="http://www.w3.org/2000/svg"><path d="M11 9L9.5 12H13.5L12 15M21 13V11M6.2 18H16.8C17.9201 18 18.4802 18 18.908 17.782C19.2843 17.5903 19.5903 17.2843 19.782 16.908C20 16.4802 20 15.9201 20 14.8V9.2C20 8.0799 20 7.51984 19.782 7.09202C19.5903 6.71569 19.2843 6.40973 18.908 6.21799C18.4802 6 17.9201 6 16.8 6H6.2C5.0799 6 4.51984 6 4.09202 6.21799C3.71569 6.40973 3.40973 6.71569 3.21799 7.09202C3 7.51984 3 8.07989 3 9.2V14.8C3 15.9201 3 16.4802 3.21799 16.908C3.40973 17.2843 3.71569 17.5903 4.09202 17.782C4.51984 18 5.07989 18 6.2 18Z" stroke="currentColor" stroke-width="2" stroke-linecap="round" stroke-linejoin="round"/></symbol><symbol id="monitor-heart-rate" viewBox="0 0 24 24" fill="none" xmlns="http://www.w3.org/2000/svg"><path d="M3 13H8.5L10 15L12 9L14 13H17M6.2 19H17.8C18.9201 19 19.4802 19 19.908 18.782C20.2843 18.5903 20.5903 18.2843 20.782 17.908C21 17.4802 21 16.9201 21 15.8V8.2C21 7.0799 21 6.51984 20.782 6.09202C20.5903 5.71569 20.2843 5.40973 19.908 5.21799C19.4802 5 18.9201 5 17.8 5H6.2C5.0799 5 4.51984 5 4.09202 5.21799C3.71569 5.40973 3.40973 5.71569 3.21799 6.09202C3 6.51984 3 7.07989 3 8.2V15.8C3 16.9201 3 17.4802 3.21799 17.908C3.40973 18.2843 3.71569 18.5903 4.09202 18.782C4.51984 19 5.07989 19 6.2 19Z" stroke="currentColor" stroke-width="2" stroke-linecap="round" stroke-linejoin="round"/></symbol><symbol id="message-circle" viewBox="0 0 24 24" fill="none" xmlns="http://www.w3.org/2000/svg"><path d="M21.0039 12C21.0039 16.9706 16.9745 21 12.0039 21C9.9675 21 3.00463 21 3.00463 21C3.00463 21 4.56382 17.2561 3.93982 16.0008C3.34076 14.7956 3.00391 13.4372 3.00391 12C3.00391 7.02944 7.03334 3 12.0039 3C16.9745 3 21.0039 7.02944 21.0039 12Z" stroke="currentColor" stroke-width="2" stroke-linecap="round" stroke-linejoin="round"/></symbol><symbol id="bolt" viewBox="0 0 24 24" fill="none" xmlns="http://www.w3.org/2000/svg"><path d="M12.9996 3L5.06859 12.6934C4.72703 13.1109 4.55625 13.3196 4.55471 13.4956C4.55336 13.6486 4.62218 13.7939 4.74148 13.8897C4.87867 14 5.14837 14 5.68776 14H11.9996L10.9996 21L18.9305 11.3066C19.2721 10.8891 19.4429 10.6804 19.4444 10.5044C19.4458 10.3514 19.377 10.2061 19.2577 10.1103C19.1205 10 18.8508 10 18.3114 10H11.9996L12.9996 3Z" stroke="currentColor" stroke-width="2" stroke-linecap="round" stroke-linejoin="round"/></symbol><symbol id="gaming-pad-alt-1" viewBox="0 0 24 24" fill="none" xmlns="http://www.w3.org/2000/svg"><path d="M6.00014 11H10.0001M8.00014 9V13M15.0001 12H15.0101M18.0001 10H18.0101M10.4491 5H13.5512C16.1761 5 17.4885 5 18.5187 5.49743C19.4257 5.9354 20.1793 6.63709 20.6808 7.51059C21.2503 8.5027 21.3438 9.81181 21.5309 12.43L21.7769 15.8745C21.8975 17.5634 20.5599 19 18.8667 19C18.0008 19 17.1796 18.6154 16.6253 17.9502L16.2501 17.5C15.907 17.0882 15.7354 16.8823 15.54 16.7159C15.1305 16.3672 14.6346 16.1349 14.1045 16.0436C13.8516 16 13.5836 16 13.0476 16H10.9527C10.4167 16 10.1487 16 9.89577 16.0436C9.36563 16.1349 8.86981 16.3672 8.46024 16.7159C8.26487 16.8823 8.09329 17.0882 7.75013 17.5L7.37497 17.9502C6.82064 18.6154 5.99949 19 5.13359 19C3.44037 19 2.10275 17.5634 2.22339 15.8745L2.46942 12.43C2.65644 9.81181 2.74994 8.5027 3.31951 7.51059C3.82098 6.63709 4.57458 5.9354 5.48159 5.49743C6.51176 5 7.8242 5 10.4491 5Z" stroke="currentColor" stroke-width="2" stroke-linecap="round" stroke-linejoin="round"/></symbol><symbol id="telegram" viewBox="0 0 24 24" fill="none" xmlns="http://www.w3.org/2000/svg"><path d="M19.7773,4.42984 C20.8652,3.97177 22.0315,4.8917 21.8394,6.05639 L19.5705,19.8131 C19.3517,21.1395 17.8949,21.9006 16.678,21.2396 C15.6597,20.6865 14.1489,19.8352 12.7873,18.9455 C12.1074,18.5012 10.0255,17.0766 10.2814,16.0625 C10.5002,15.1954 14.0001,11.9375 16.0001,10 C16.7857,9.23893 16.4279,8.79926 15.5001,9.5 C13.1985,11.2383 9.50332,13.8812 8.28136,14.625 C7.20323,15.2812 6.64031,15.3932 5.96886,15.2812 C4.74273,15.0769 3.60596,14.7605 2.67788,14.3758 C1.42351,13.8558 1.48461,12.132 2.67703,11.63 L19.7773,4.42984 Z" fill="currentColor" /></symbol><symbol id="party-horn" viewBox="0 0 24 24" fill="none" xmlns="http://www.w3.org/2000/svg"><path d="M5.5713 14.5L9.46583 18.4141M18.9996 3.60975C17.4044 3.59505 16.6658 4.33233 16.4236 5.07743C16.2103 5.73354 16.4052 7.07735 15.896 8.0727C15.4091 9.02443 14.1204 9.5617 12.6571 9.60697M20 7.6104L20.01 7.61049M19 15.96L19.01 15.9601M7.00001 3.94926L7.01001 3.94936M19 11.1094C17.5 11.1094 16.5 11.6094 15.5949 12.5447M10.2377 7.18796C11 6.10991 11.5 5.10991 11.0082 3.52734M3.53577 20.4645L7.0713 9.85791L14.1424 16.929L3.53577 20.4645Z" stroke="currentColor" stroke-width="2" stroke-linecap="round" stroke-linejoin="round"/></symbol><symbol id="shield-check" viewBox="0 0 24 24" fill="none" xmlns="http://www.w3.org/2000/svg"><path d="M9 12L11 14L15 9.99999M20 12C20 16.4611 14.54 19.6937 12.6414 20.683C12.4361 20.79 12.3334 20.8435 12.191 20.8712C12.08 20.8928 11.92 20.8928 11.809 20.8712C11.6666 20.8435 11.5639 20.79 11.3586 20.683C9.45996 19.6937 4 16.4611 4 12V8.21759C4 7.41808 4 7.01833 4.13076 6.6747C4.24627 6.37113 4.43398 6.10027 4.67766 5.88552C4.9535 5.64243 5.3278 5.50207 6.0764 5.22134L11.4382 3.21067C11.6461 3.13271 11.75 3.09373 11.857 3.07827C11.9518 3.06457 12.0482 3.06457 12.143 3.07827C12.25 3.09373 12.3539 3.13271 12.5618 3.21067L17.9236 5.22134C18.6722 5.50207 19.0465 5.64243 19.3223 5.88552C19.566 6.10027 19.7537 6.37113 19.8692 6.6747C20 7.01833 20 7.41808 20 8.21759V12Z" stroke="currentColor" stroke-width="2" stroke-linecap="round" stroke-linejoin="round"/></symbol><symbol id="mouse-alt-3" viewBox="0 0 24 24" fill="none" xmlns="http://www.w3.org/2000/svg"><path d="M12 9V7M12 21C8.68629 21 6 18.3137 6 15V9C6 5.68629 8.68629 3 12 3C15.3137 3 18 5.68629 18 9V15C18 18.3137 15.3137 21 12 21Z" stroke="currentColor" stroke-width="2" stroke-linecap="round" stroke-linejoin="round"/></symbol><symbol id="coins-alt" viewBox="0 0 24 24" fill="none" xmlns="http://www.w3.org/2000/svg"><path d="M14 10.5C14 11.8807 11.7614 13 9 13C6.23858 13 4 11.8807 4 10.5M14 10.5C14 9.11929 11.7614 8 9 8C6.23858 8 4 9.11929 4 10.5M14 10.5V14.5M4 10.5V14.5M20 5.5C20 4.11929 17.7614 3 15 3C13.0209 3 11.3104 3.57493 10.5 4.40897M20 5.5C20 6.42535 18.9945 7.23328 17.5 7.66554M20 5.5V14C20 14.7403 18.9945 15.3866 17.5 15.7324M20 10C20 10.7567 18.9495 11.4152 17.3999 11.755M14 14.5C14 15.8807 11.7614 17 9 17C6.23858 17 4 15.8807 4 14.5M14 14.5V18.5C14 19.8807 11.7614 21 9 21C6.23858 21 4 19.8807 4 18.5V14.5" stroke="currentColor" stroke-width="2" stroke-linecap="round" stroke-linejoin="round"/></symbol><symbol id="link" viewBox="0 0 24 24" fill="none" xmlns="http://www.w3.org/2000/svg"><path d="M14 7H16C18.7614 7 21 9.23858 21 12C21 14.7614 18.7614 17 16 17H14M10 7H8C5.23858 7 3 9.23858 3 12C3 14.7614 5.23858 17 8 17H10M8 12H16" stroke="currentColor" stroke-width="2" stroke-linecap="round" stroke-linejoin="round"/></symbol><symbol id="gear" viewBox="0 0 24 24" fill="none" xmlns="http://www.w3.org/2000/svg"><path d="M15 12C15 13.6569 13.6569 15 12 15C10.3431 15 9 13.6569 9 12C9 10.3431 10.3431 9 12 9C13.6569 9 15 10.3431 15 12Z" stroke="currentColor" stroke-width="2" stroke-linecap="round" stroke-linejoin="round"/>
<path d="M12.9046 3.06005C12.6988 3 12.4659 3 12 3C11.5341 3 11.3012 3 11.0954 3.06005C10.7942 3.14794 10.5281 3.32808 10.3346 3.57511C10.2024 3.74388 10.1159 3.96016 9.94291 4.39272C9.69419 5.01452 9.00393 5.33471 8.36857 5.123L7.79779 4.93281C7.3929 4.79785 7.19045 4.73036 6.99196 4.7188C6.70039 4.70181 6.4102 4.77032 6.15701 4.9159C5.98465 5.01501 5.83376 5.16591 5.53197 5.4677C5.21122 5.78845 5.05084 5.94882 4.94896 6.13189C4.79927 6.40084 4.73595 6.70934 4.76759 7.01551C4.78912 7.2239 4.87335 7.43449 5.04182 7.85566C5.30565 8.51523 5.05184 9.26878 4.44272 9.63433L4.16521 9.80087C3.74031 10.0558 3.52786 10.1833 3.37354 10.3588C3.23698 10.5141 3.13401 10.696 3.07109 10.893C3 11.1156 3 11.3658 3 11.8663C3 12.4589 3 12.7551 3.09462 13.0088C3.17823 13.2329 3.31422 13.4337 3.49124 13.5946C3.69158 13.7766 3.96395 13.8856 4.50866 14.1035C5.06534 14.3261 5.35196 14.9441 5.16236 15.5129L4.94721 16.1584C4.79819 16.6054 4.72367 16.829 4.7169 17.0486C4.70875 17.3127 4.77049 17.5742 4.89587 17.8067C5.00015 18.0002 5.16678 18.1668 5.5 18.5C5.83323 18.8332 5.99985 18.9998 6.19325 19.1041C6.4258 19.2295 6.68733 19.2913 6.9514 19.2831C7.17102 19.2763 7.39456 19.2018 7.84164 19.0528L8.36862 18.8771C9.00393 18.6654 9.6942 18.9855 9.94291 19.6073C10.1159 20.0398 10.2024 20.2561 10.3346 20.4249C10.5281 20.6719 10.7942 20.8521 11.0954 20.94C11.3012 21 11.5341 21 12 21C12.4659 21 12.6988 21 12.9046 20.94C13.2058 20.8521 13.4719 20.6719 13.6654 20.4249C13.7976 20.2561 13.8841 20.0398 14.0571 19.6073C14.3058 18.9855 14.9961 18.6654 15.6313 18.8773L16.1579 19.0529C16.605 19.2019 16.8286 19.2764 17.0482 19.2832C17.3123 19.2913 17.5738 19.2296 17.8063 19.1042C17.9997 18.9999 18.1664 18.8333 18.4996 18.5001C18.8328 18.1669 18.9994 18.0002 19.1037 17.8068C19.2291 17.5743 19.2908 17.3127 19.2827 17.0487C19.2759 16.8291 19.2014 16.6055 19.0524 16.1584L18.8374 15.5134C18.6477 14.9444 18.9344 14.3262 19.4913 14.1035C20.036 13.8856 20.3084 13.7766 20.5088 13.5946C20.6858 13.4337 20.8218 13.2329 20.9054 13.0088C21 12.7551 21 12.4589 21 11.8663C21 11.3658 21 11.1156 20.9289 10.893C20.866 10.696 20.763 10.5141 20.6265 10.3588C20.4721 10.1833 20.2597 10.0558 19.8348 9.80087L19.5569 9.63416C18.9478 9.26867 18.6939 8.51514 18.9578 7.85558C19.1262 7.43443 19.2105 7.22383 19.232 7.01543C19.2636 6.70926 19.2003 6.40077 19.0506 6.13181C18.9487 5.94875 18.7884 5.78837 18.4676 5.46762C18.1658 5.16584 18.0149 5.01494 17.8426 4.91583C17.5894 4.77024 17.2992 4.70174 17.0076 4.71872C16.8091 4.73029 16.6067 4.79777 16.2018 4.93273L15.6314 5.12287C14.9961 5.33464 14.3058 5.0145 14.0571 4.39272C13.8841 3.96016 13.7976 3.74388 13.6654 3.57511C13.4719 3.32808 13.2058 3.14794 12.9046 3.06005Z" stroke="currentColor" stroke-width="2" stroke-linecap="round" stroke-linejoin="round"/></symbol><symbol id="kit-medical" viewBox="0 0 24 24" fill="none" xmlns="http://www.w3.org/2000/svg"><path d="M10 12H14M12 10V14M7 5V19M17 5V19M6.2 19H17.8C18.9201 19 19.4802 19 19.908 18.782C20.2843 18.5903 20.5903 18.2843 20.782 17.908C21 17.4802 21 16.9201 21 15.8V8.2C21 7.0799 21 6.51984 20.782 6.09202C20.5903 5.71569 20.2843 5.40973 19.908 5.21799C19.4802 5 18.9201 5 17.8 5H6.2C5.0799 5 4.51984 5 4.09202 5.21799C3.71569 5.40973 3.40973 5.71569 3.21799 6.09202C3 6.51984 3 7.07989 3 8.2V15.8C3 16.9201 3 17.4802 3.21799 17.908C3.40973 18.2843 3.71569 18.5903 4.09202 18.782C4.51984 19 5.07989 19 6.2 19Z" stroke="currentColor" stroke-width="2" stroke-linecap="round" stroke-linejoin="round"/></symbol><symbol id="user-block-alt-1" viewBox="0 0 24 24" fill="none" xmlns="http://www.w3.org/2000/svg"><path d="M14.8086 19.7053L19.127 16.3467M4 21C4 17.134 7.13401 14 11 14M20 18C20 19.6569 18.6569 21 17 21C15.3431 21 14 19.6569 14 18C14 16.3431 15.3431 15 17 15C18.6569 15 20 16.3431 20 18ZM15 7C15 9.20914 13.2091 11 11 11C8.79086 11 7 9.20914 7 7C7 4.79086 8.79086 3 11 3C13.2091 3 15 4.79086 15 7Z" stroke="currentColor" stroke-width="2" stroke-linecap="round" stroke-linejoin="round"/></symbol><symbol id="whats-app" viewBox="0 0 24 24" fill="none" xmlns="http://www.w3.org/2000/svg"><path fill-rule="evenodd" clip-rule="evenodd" d="M3.50002 12C3.50002 7.30558 7.3056 3.5 12 3.5C16.6944 3.5 20.5 7.30558 20.5 12C20.5 16.6944 16.6944 20.5 12 20.5C10.3278 20.5 8.77127 20.0182 7.45798 19.1861C7.21357 19.0313 6.91408 18.9899 6.63684 19.0726L3.75769 19.9319L4.84173 17.3953C4.96986 17.0955 4.94379 16.7521 4.77187 16.4751C3.9657 15.176 3.50002 13.6439 3.50002 12ZM12 1.5C6.20103 1.5 1.50002 6.20101 1.50002 12C1.50002 13.8381 1.97316 15.5683 2.80465 17.0727L1.08047 21.107C0.928048 21.4637 0.99561 21.8763 1.25382 22.1657C1.51203 22.4552 1.91432 22.5692 2.28599 22.4582L6.78541 21.1155C8.32245 21.9965 10.1037 22.5 12 22.5C17.799 22.5 22.5 17.799 22.5 12C22.5 6.20101 17.799 1.5 12 1.5ZM14.2925 14.1824L12.9783 15.1081C12.3628 14.7575 11.6823 14.2681 10.9997 13.5855C10.2901 12.8759 9.76402 12.1433 9.37612 11.4713L10.2113 10.7624C10.5697 10.4582 10.6678 9.94533 10.447 9.53028L9.38284 7.53028C9.23954 7.26097 8.98116 7.0718 8.68115 7.01654C8.38113 6.96129 8.07231 7.046 7.84247 7.24659L7.52696 7.52195C6.76823 8.18414 6.3195 9.2723 6.69141 10.3741C7.07698 11.5163 7.89983 13.314 9.58552 14.9997C11.3991 16.8133 13.2413 17.5275 14.3186 17.8049C15.1866 18.0283 16.008 17.7288 16.5868 17.2572L17.1783 16.7752C17.4313 16.5691 17.5678 16.2524 17.544 15.9269C17.5201 15.6014 17.3389 15.308 17.0585 15.1409L15.3802 14.1409C15.0412 13.939 14.6152 13.9552 14.2925 14.1824Z" fill="currentColor" /></symbol><symbol id="user-heart-alt-1" viewBox="0 0 24 24" fill="none" xmlns="http://www.w3.org/2000/svg"><path d="M4 21C4 17.4735 6.60771 14.5561 10 14.0709M16.4976 16.2119C15.7978 15.4328 14.6309 15.2232 13.7541 15.9367C12.8774 16.6501 12.7539 17.843 13.4425 18.6868C13.8312 19.1632 14.7548 19.9983 15.4854 20.6353C15.8319 20.9374 16.0051 21.0885 16.2147 21.1503C16.3934 21.203 16.6018 21.203 16.7805 21.1503C16.9901 21.0885 17.1633 20.9374 17.5098 20.6353C18.2404 19.9983 19.164 19.1632 19.5527 18.6868C20.2413 17.843 20.1329 16.6426 19.2411 15.9367C18.3492 15.2307 17.1974 15.4328 16.4976 16.2119ZM15 7C15 9.20914 13.2091 11 11 11C8.79086 11 7 9.20914 7 7C7 4.79086 8.79086 3 11 3C13.2091 3 15 4.79086 15 7Z" stroke="currentColor" stroke-width="2" stroke-linecap="round" stroke-linejoin="round"/></symbol><symbol id="server" viewBox="0 0 24 24" fill="none" xmlns="http://www.w3.org/2000/svg"><path d="M18 7H18.01M15 7H15.01M18 17H18.01M15 17H15.01M6 10H18C18.9319 10 19.3978 10 19.7654 9.84776C20.2554 9.64477 20.6448 9.25542 20.8478 8.76537C21 8.39782 21 7.93188 21 7C21 6.06812 21 5.60218 20.8478 5.23463C20.6448 4.74458 20.2554 4.35523 19.7654 4.15224C19.3978 4 18.9319 4 18 4H6C5.06812 4 4.60218 4 4.23463 4.15224C3.74458 4.35523 3.35523 4.74458 3.15224 5.23463C3 5.60218 3 6.06812 3 7C3 7.93188 3 8.39782 3.15224 8.76537C3.35523 9.25542 3.74458 9.64477 4.23463 9.84776C4.60218 10 5.06812 10 6 10ZM6 20H18C18.9319 20 19.3978 20 19.7654 19.8478C20.2554 19.6448 20.6448 19.2554 20.8478 18.7654C21 18.3978 21 17.9319 21 17C21 16.0681 21 15.6022 20.8478 15.2346C20.6448 14.7446 20.2554 14.3552 19.7654 14.1522C19.3978 14 18.9319 14 18 14H6C5.06812 14 4.60218 14 4.23463 14.1522C3.74458 14.3552 3.35523 14.7446 3.15224 15.2346C3 15.6022 3 16.0681 3 17C3 17.9319 3 18.3978 3.15224 18.7654C3.35523 19.2554 3.74458 19.6448 4.23463 19.8478C4.60218 20 5.06812 20 6 20Z" stroke="currentColor" stroke-width="2" stroke-linecap="round" stroke-linejoin="round"/></symbol><symbol id="badge-percent" viewBox="0 0 24 24" fill="none" xmlns="http://www.w3.org/2000/svg"><path d="M15.5 8.5L8.5 15.5M9.5 9.5H9.51M14.5 14.5H14.51M10 9.5C10 9.77614 9.77614 10 9.5 10C9.22386 10 9 9.77614 9 9.5C9 9.22386 9.22386 9 9.5 9C9.77614 9 10 9.22386 10 9.5ZM15 14.5C15 14.7761 14.7761 15 14.5 15C14.2239 15 14 14.7761 14 14.5C14 14.2239 14.2239 14 14.5 14C14.7761 14 15 14.2239 15 14.5ZM16.3287 4.75855C17.0676 4.77963 17.8001 5.07212 18.364 5.636C18.9278 6.19989 19.2203 6.9324 19.2414 7.67121C19.2623 8.40232 19.2727 8.76787 19.2942 8.85296C19.3401 9.0351 19.2867 8.90625 19.383 9.06752C19.428 9.14286 19.6792 9.40876 20.1814 9.94045C20.6889 10.4778 21 11.2026 21 12C21 12.7974 20.6889 13.5222 20.1814 14.0595C19.6792 14.5912 19.428 14.8571 19.383 14.9325C19.2867 15.0937 19.3401 14.9649 19.2942 15.147C19.2727 15.2321 19.2623 15.5977 19.2414 16.3288C19.2203 17.0676 18.9278 17.8001 18.364 18.364C17.8001 18.9279 17.0676 19.2204 16.3287 19.2414C15.5976 19.2623 15.2321 19.2727 15.147 19.2942C14.9649 19.3401 15.0937 19.2868 14.9325 19.3831C14.8571 19.4281 14.5912 19.6792 14.0595 20.1814C13.5222 20.6889 12.7974 21 12 21C11.2026 21 10.4778 20.6889 9.94047 20.1814C9.40874 19.6792 9.14287 19.4281 9.06753 19.3831C8.90626 19.2868 9.0351 19.3401 8.85296 19.2942C8.76788 19.2727 8.40225 19.2623 7.67121 19.2414C6.93238 19.2204 6.19986 18.9279 5.63597 18.364C5.07207 17.8001 4.77959 17.0676 4.75852 16.3287C4.73766 15.5976 4.72724 15.2321 4.70578 15.147C4.65985 14.9649 4.71322 15.0937 4.61691 14.9324C4.57192 14.8571 4.32082 14.5912 3.81862 14.0595C3.31113 13.5222 3 12.7974 3 12C3 11.2026 3.31113 10.4778 3.81862 9.94048C4.32082 9.40876 4.57192 9.14289 4.61691 9.06755C4.71322 8.90628 4.65985 9.03512 4.70578 8.85299C4.72724 8.7679 4.73766 8.40235 4.75852 7.67126C4.77959 6.93243 5.07207 6.1999 5.63597 5.636C6.19986 5.07211 6.93238 4.77963 7.67121 4.75855C8.40232 4.73769 8.76788 4.72727 8.85296 4.70581C9.0351 4.65988 8.90626 4.71325 9.06753 4.61694C9.14287 4.57195 9.40876 4.32082 9.94047 3.81863C10.4778 3.31113 11.2026 3 12 3C12.7974 3 13.5222 3.31114 14.0595 3.81864C14.5913 4.32084 14.8571 4.57194 14.9325 4.61693C15.0937 4.71324 14.9649 4.65988 15.147 4.70581C15.2321 4.72726 15.5976 4.73769 16.3287 4.75855Z" stroke="currentColor" stroke-width="2" stroke-linecap="round" stroke-linejoin="round"/></symbol><symbol id="user-block" viewBox="0 0 24 24" fill="none" xmlns="http://www.w3.org/2000/svg"><path d="M11 14C7.13401 14 4 17.134 4 21H11M14.8086 19.7053L19.127 16.3467M15 7C15 9.20914 13.2091 11 11 11C8.79086 11 7 9.20914 7 7C7 4.79086 8.79086 3 11 3C13.2091 3 15 4.79086 15 7ZM20 18C20 19.6569 18.6569 21 17 21C15.3431 21 14 19.6569 14 18C14 16.3431 15.3431 15 17 15C18.6569 15 20 16.3431 20 18Z" stroke="currentColor" stroke-width="2" stroke-linecap="round" stroke-linejoin="round"/></symbol><symbol id="microchip" viewBox="0 0 24 24" fill="none" xmlns="http://www.w3.org/2000/svg"><path d="M21 8H17.8174M21 12H18M21 16H17.8174M6.18257 8H3M8 6.18257V3M8 21L8 17.8174M12 6V3M12 21V18M16 6.18257V3M16 21V17.8174M6 12H3M6.18257 16H3M10.8 18H13.2C14.8802 18 15.7202 18 16.362 17.673C16.9265 17.3854 17.3854 16.9265 17.673 16.362C18 15.7202 18 14.8802 18 13.2V10.8C18 9.11984 18 8.27976 17.673 7.63803C17.3854 7.07354 16.9265 6.6146 16.362 6.32698C15.7202 6 14.8802 6 13.2 6H10.8C9.11984 6 8.27976 6 7.63803 6.32698C7.07354 6.6146 6.6146 7.07354 6.32698 7.63803C6 8.27976 6 9.11984 6 10.8V13.2C6 14.8802 6 15.7202 6.32698 16.362C6.6146 16.9265 7.07354 17.3854 7.63803 17.673C8.27976 18 9.11984 18 10.8 18ZM10 10H14V14H10V10Z" stroke="currentColor" stroke-width="2" stroke-linecap="round" stroke-linejoin="round"/></symbol><symbol id="microphone-alt" viewBox="0 0 24 24" fill="none" xmlns="http://www.w3.org/2000/svg"><path d="M20 12V13C20 17.4183 16.4183 21 12 21C7.58172 21 4 17.4183 4 13V12M12 17C9.79086 17 8 15.2091 8 13V7C8 4.79086 9.79086 3 12 3C14.2091 3 16 4.79086 16 7V13C16 15.2091 14.2091 17 12 17Z" stroke="currentColor" stroke-width="2" stroke-linecap="round" stroke-linejoin="round"/></symbol><symbol id="clipboard-list-alt" viewBox="0 0 24 24" fill="none" xmlns="http://www.w3.org/2000/svg"><path d="M8 5.00005C7.01165 5.00082 6.49359 5.01338 6.09202 5.21799C5.71569 5.40973 5.40973 5.71569 5.21799 6.09202C5 6.51984 5 7.07989 5 8.2V17.8C5 18.9201 5 19.4802 5.21799 19.908C5.40973 20.2843 5.71569 20.5903 6.09202 20.782C6.51984 21 7.07989 21 8.2 21H15.8C16.9201 21 17.4802 21 17.908 20.782C18.2843 20.5903 18.5903 20.2843 18.782 19.908C19 19.4802 19 18.9201 19 17.8V8.2C19 7.07989 19 6.51984 18.782 6.09202C18.5903 5.71569 18.2843 5.40973 17.908 5.21799C17.5064 5.01338 16.9884 5.00082 16 5.00005M8 5.00005V7H16V5.00005M8 5.00005V4.70711C8 4.25435 8.17986 3.82014 8.5 3.5C8.82014 3.17986 9.25435 3 9.70711 3H14.2929C14.7456 3 15.1799 3.17986 15.5 3.5C15.8201 3.82014 16 4.25435 16 4.70711V5.00005M15 12H12M15 16H12M9 12H9.01M9 16H9.01" stroke="currentColor" stroke-width="2" stroke-linecap="round" stroke-linejoin="round"/></symbol><symbol id="inbox-alt" viewBox="0 0 24 24" fill="none" xmlns="http://www.w3.org/2000/svg"><path d="M5 12V7.2C5 6.0799 5 5.51984 5.21799 5.09202C5.40973 4.71569 5.71569 4.40973 6.09202 4.21799C6.51984 4 7.07989 4 8.2 4H15.8C16.9201 4 17.4802 4 17.908 4.21799C18.2843 4.40973 18.5903 4.71569 18.782 5.09202C19 5.51984 19 6.0799 19 7.2V12M3 12V16.8C3 17.9201 3 18.4802 3.21799 18.908C3.40973 19.2843 3.71569 19.5903 4.09202 19.782C4.51984 20 5.0799 20 6.2 20H17.8C18.9201 20 19.4802 20 19.908 19.782C20.2843 19.5903 20.5903 19.2843 20.782 18.908C21 18.4802 21 17.9201 21 16.8V12H17.3255C16.8363 12 16.5917 12 16.3615 12.0553C16.1575 12.1043 15.9624 12.1851 15.7834 12.2947C15.5816 12.4184 15.4086 12.5914 15.0627 12.9373L14.9373 13.0627C14.5914 13.4086 14.4184 13.5816 14.2166 13.7053C14.0376 13.8149 13.8425 13.8957 13.6385 13.9447C13.4083 14 13.1637 14 12.6745 14H11.3255C10.8363 14 10.5917 14 10.3615 13.9447C10.1575 13.8957 9.96237 13.8149 9.78343 13.7053C9.5816 13.5816 9.40864 13.4086 9.06274 13.0627L8.93726 12.9373C8.59135 12.5914 8.4184 12.4184 8.21657 12.2947C8.03763 12.1851 7.84254 12.1043 7.63846 12.0553C7.40829 12 7.1637 12 6.67452 12H3Z" stroke="currentColor" stroke-width="2" stroke-linecap="round" stroke-linejoin="round"/></symbol><symbol id="battery-full" viewBox="0 0 24 24" fill="none" xmlns="http://www.w3.org/2000/svg"><path d="M7.5 10V14M11.5 10V14M15.5 10V14M21 13V11M6.2 18H16.8C17.9201 18 18.4802 18 18.908 17.782C19.2843 17.5903 19.5903 17.2843 19.782 16.908C20 16.4802 20 15.9201 20 14.8V9.2C20 8.0799 20 7.51984 19.782 7.09202C19.5903 6.71569 19.2843 6.40973 18.908 6.21799C18.4802 6 17.9201 6 16.8 6H6.2C5.0799 6 4.51984 6 4.09202 6.21799C3.71569 6.40973 3.40973 6.71569 3.21799 7.09202C3 7.51984 3 8.07989 3 9.2V14.8C3 15.9201 3 16.4802 3.21799 16.908C3.40973 17.2843 3.71569 17.5903 4.09202 17.782C4.51984 18 5.07989 18 6.2 18Z" stroke="currentColor" stroke-width="2" stroke-linecap="round" stroke-linejoin="round"/></symbol><symbol id="mask-face" viewBox="0 0 24 24" fill="none" xmlns="http://www.w3.org/2000/svg"><path d="M6.2 8H4.59067C4.03942 8 3.76379 8 3.55255 8.10569C3.35921 8.20242 3.20242 8.35921 3.10569 8.55255C3 8.76379 3 9.03942 3 9.59067V9.728C3 11.1692 3 11.8898 3.21315 12.5163C3.45355 13.2229 3.88684 13.8482 4.46405 14.3214C4.97584 14.7409 5.82994 15.0669 7.17937 15.573M17.8 8H19.4093C19.9606 8 20.2362 8 20.4474 8.10569C20.6408 8.20242 20.7976 8.35921 20.8943 8.55255C21 8.76379 21 9.03942 21 9.59067V9.728C21 11.1692 21 11.8898 20.7868 12.5163C20.5465 13.2229 20.1132 13.8482 19.536 14.3214C19.0242 14.7409 18.1929 15.036 16.8434 15.542M10 11H14M11 14H13M6 8V12C6 15.3137 8.68629 18 12 18C15.3137 18 18 15.3137 18 12V8H17.8028C17.2165 8 16.9233 8 16.6385 7.95881C16.2409 7.90131 15.8543 7.78423 15.4915 7.61153C15.2317 7.48782 14.9878 7.32521 14.5 7L13.8321 6.5547C13.2895 6.19301 12.6521 6 12 6C11.3479 6 10.7105 6.19301 10.168 6.5547L9.5 7C9.01218 7.32521 8.76827 7.48782 8.50846 7.61153C8.14573 7.78423 7.75906 7.90131 7.36145 7.95881C7.07666 8 6.78351 8 6.19722 8H6Z" stroke="currentColor" stroke-width="2" stroke-linecap="round" stroke-linejoin="round"/></symbol><symbol id="badge-dollar" viewBox="0 0 24 24" fill="none" xmlns="http://www.w3.org/2000/svg"><path d="M12 9.37589C11.1926 9.40108 10.0016 9.73666 10 10.6874C9.99825 11.7002 11 11.9999 12 11.9999C13 11.9999 14 12.2311 14 13.3124C14 14.125 13.0064 14.4815 12 14.5994M12 9.37589C12.6851 9.37133 13.5 9.37589 14 9.49991M12 9.37589L12 8M12 14.5994C11.2 14.5994 11 14.6249 10 14.4999M12 14.5994V16M16.3287 4.75855C17.0676 4.77963 17.8001 5.07212 18.364 5.636C18.9278 6.19989 19.2203 6.9324 19.2414 7.67121C19.2623 8.40232 19.2727 8.76787 19.2942 8.85296C19.3401 9.0351 19.2867 8.90625 19.383 9.06752C19.428 9.14286 19.6792 9.40876 20.1814 9.94045C20.6889 10.4778 21 11.2026 21 12C21 12.7974 20.6889 13.5222 20.1814 14.0595C19.6792 14.5912 19.428 14.8571 19.383 14.9325C19.2867 15.0937 19.3401 14.9649 19.2942 15.147C19.2727 15.2321 19.2623 15.5977 19.2414 16.3288C19.2203 17.0676 18.9278 17.8001 18.364 18.364C17.8001 18.9279 17.0676 19.2204 16.3287 19.2414C15.5976 19.2623 15.2321 19.2727 15.147 19.2942C14.9649 19.3401 15.0937 19.2868 14.9325 19.3831C14.8571 19.4281 14.5912 19.6792 14.0595 20.1814C13.5222 20.6889 12.7974 21 12 21C11.2026 21 10.4778 20.6889 9.94047 20.1814C9.40874 19.6792 9.14287 19.4281 9.06753 19.3831C8.90626 19.2868 9.0351 19.3401 8.85296 19.2942C8.76788 19.2727 8.40225 19.2623 7.67121 19.2414C6.93238 19.2204 6.19986 18.9279 5.63597 18.364C5.07207 17.8001 4.77959 17.0676 4.75852 16.3287C4.73766 15.5976 4.72724 15.2321 4.70578 15.147C4.65985 14.9649 4.71322 15.0937 4.61691 14.9324C4.57192 14.8571 4.32082 14.5912 3.81862 14.0595C3.31113 13.5222 3 12.7974 3 12C3 11.2026 3.31113 10.4778 3.81862 9.94048C4.32082 9.40876 4.57192 9.14289 4.61691 9.06755C4.71322 8.90628 4.65985 9.03512 4.70578 8.85299C4.72724 8.7679 4.73766 8.40235 4.75852 7.67126C4.77959 6.93243 5.07207 6.1999 5.63597 5.636C6.19986 5.07211 6.93238 4.77963 7.67121 4.75855C8.40232 4.73769 8.76788 4.72727 8.85296 4.70581C9.0351 4.65988 8.90626 4.71325 9.06753 4.61694C9.14287 4.57195 9.40876 4.32082 9.94047 3.81863C10.4778 3.31113 11.2026 3 12 3C12.7974 3 13.5222 3.31114 14.0595 3.81864C14.5913 4.32084 14.8571 4.57194 14.9325 4.61693C15.0937 4.71324 14.9649 4.65988 15.147 4.70581C15.2321 4.72726 15.5976 4.73769 16.3287 4.75855Z" stroke="currentColor" stroke-width="2" stroke-linecap="round" stroke-linejoin="round"/></symbol><symbol id="circle-minus" viewBox="0 0 24 24" fill="none" xmlns="http://www.w3.org/2000/svg"><path d="M8 12H16M21 12C21 16.9706 16.9706 21 12 21C7.02944 21 3 16.9706 3 12C3 7.02944 7.02944 3 12 3C16.9706 3 21 7.02944 21 12Z" stroke="currentColor" stroke-width="2" stroke-linecap="round" stroke-linejoin="round"/></symbol><symbol id="virus-covid-19" viewBox="0 0 24 24" fill="none" xmlns="http://www.w3.org/2000/svg"><path d="M18 12C18 15.3137 15.3137 18 12 18M18 12C18 8.68629 15.3137 6 12 6M18 12H21M12 18C8.68629 18 6 15.3137 6 12M12 18V21M6 12C6 8.68629 8.68629 6 12 6M6 12H3M12 6V3M21 10.5V13.5M3 10.5V13.5M10.5 3H13.5M10.5 21H13.5M17.3037 4.5752L19.425 6.69652M4.5752 17.3037L6.69652 19.425M18.3643 5.63574L16.2429 7.75706M7.75781 16.2422L5.63649 18.3635M4.5752 6.69629L6.69652 4.57497M17.3037 19.4248L19.425 17.3035M5.63574 5.63574L7.75706 7.75706M16.2422 16.2422L18.3635 18.3635M14 14H14.01M10.5 11.5H10.51M11.5 11.5C11.5 12.0523 11.0523 12.5 10.5 12.5C9.94772 12.5 9.5 12.0523 9.5 11.5C9.5 10.9477 9.94772 10.5 10.5 10.5C11.0523 10.5 11.5 10.9477 11.5 11.5Z" stroke="currentColor" stroke-width="2" stroke-linecap="round" stroke-linejoin="round"/></symbol><symbol id="briefcase-medical" viewBox="0 0 24 24" fill="none" xmlns="http://www.w3.org/2000/svg"><path d="M16 6C16 4.34315 14.6569 3 13 3H11C9.34315 3 8 4.34315 8 6M10 14H14M12 12V16M7.8 21H16.2C17.8802 21 18.7202 21 19.362 20.673C19.9265 20.3854 20.3854 19.9265 20.673 19.362C21 18.7202 21 17.8802 21 16.2V11.8C21 10.1198 21 9.27976 20.673 8.63803C20.3854 8.07354 19.9265 7.6146 19.362 7.32698C18.7202 7 17.8802 7 16.2 7H7.8C6.11984 7 5.27976 7 4.63803 7.32698C4.07354 7.6146 3.6146 8.07354 3.32698 8.63803C3 9.27976 3 10.1198 3 11.8V16.2C3 17.8802 3 18.7202 3.32698 19.362C3.6146 19.9265 4.07354 20.3854 4.63803 20.673C5.27976 21 6.11984 21 7.8 21Z" stroke="currentColor" stroke-width="2" stroke-linecap="round" stroke-linejoin="round"/></symbol><symbol id="shield-xmark" viewBox="0 0 24 24" fill="none" xmlns="http://www.w3.org/2000/svg"><path d="M9.5 9.50011L14.5 14.5001M14.5 9.50011L9.5 14.5001M20 12.0001C20 16.4612 14.54 19.6939 12.6414 20.6831C12.4361 20.7901 12.3334 20.8436 12.191 20.8713C12.08 20.8929 11.92 20.8929 11.809 20.8713C11.6666 20.8436 11.5639 20.7901 11.3586 20.6831C9.45996 19.6939 4 16.4612 4 12.0001V8.21772C4 7.4182 4 7.01845 4.13076 6.67482C4.24627 6.37126 4.43398 6.10039 4.67766 5.88564C4.9535 5.64255 5.3278 5.50219 6.0764 5.22146L11.4382 3.21079C11.6461 3.13283 11.75 3.09385 11.857 3.07839C11.9518 3.06469 12.0482 3.06469 12.143 3.07839C12.25 3.09385 12.3539 3.13283 12.5618 3.21079L17.9236 5.22146C18.6722 5.50219 19.0465 5.64255 19.3223 5.88564C19.566 6.10039 19.7537 6.37126 19.8692 6.67482C20 7.01845 20 7.4182 20 8.21772V12.0001Z" stroke="currentColor" stroke-width="2" stroke-linecap="round" stroke-linejoin="round"/></symbol><symbol id="wave-pulse" viewBox="0 0 24 24" fill="none" xmlns="http://www.w3.org/2000/svg"><path d="M3 12H7L9 19L12 5L15 17L17 12H21" stroke="currentColor" stroke-width="2" stroke-linecap="round" stroke-linejoin="round"/></symbol><symbol id="crown" viewBox="0 0 24 24" fill="none" xmlns="http://www.w3.org/2000/svg"><path d="M4 8L6 20H18L20 8M4 8L5.71624 9.37299C6.83218 10.2657 7.39014 10.7121 7.95256 10.7814C8.4453 10.8421 8.94299 10.7173 9.34885 10.4314C9.81211 10.1051 10.0936 9.4483 10.6565 8.13476L12 5M4 8C4.55228 8 5 7.55228 5 7C5 6.44772 4.55228 6 4 6C3.44772 6 3 6.44772 3 7C3 7.55228 3.44772 8 4 8ZM20 8L18.2838 9.373C17.1678 10.2657 16.6099 10.7121 16.0474 10.7814C15.5547 10.8421 15.057 10.7173 14.6511 10.4314C14.1879 10.1051 13.9064 9.4483 13.3435 8.13476L12 5M20 8C20.5523 8 21 7.55228 21 7C21 6.44772 20.5523 6 20 6C19.4477 6 19 6.44772 19 7C19 7.55228 19.4477 8 20 8ZM12 5C12.5523 5 13 4.55228 13 4C13 3.44772 12.5523 3 12 3C11.4477 3 11 3.44772 11 4C11 4.55228 11.4477 5 12 5ZM12 4H12.01M20 7H20.01M4 7H4.01" stroke="currentColor" stroke-width="2" stroke-linecap="round" stroke-linejoin="round"/></symbol><symbol id="text-size" viewBox="0 0 24 24" fill="none" xmlns="http://www.w3.org/2000/svg"><path d="M8 4V20M17 12V20M6 20H10M15 20H19M13 7V4H3V7M21 14V12H13V14" stroke="currentColor" stroke-width="2" stroke-linecap="round" stroke-linejoin="round"/></symbol><symbol id="circle-waveform-lines" viewBox="0 0 24 24" fill="none" xmlns="http://www.w3.org/2000/svg"><path d="M7.5 11V13M13.5 8V16M10.5 10V14M16.5 10.5V13.5M21 12C21 16.9706 16.9706 21 12 21C7.02944 21 3 16.9706 3 12C3 7.02944 7.02944 3 12 3C16.9706 3 21 7.02944 21 12Z" stroke="currentColor" stroke-width="2" stroke-linecap="round" stroke-linejoin="round"/></symbol><symbol id="user-check-alt-1" viewBox="0 0 24 24" fill="none" xmlns="http://www.w3.org/2000/svg"><path d="M14 19.2857L15.8 21L20 17M4 21C4 17.134 7.13401 14 11 14C12.4872 14 13.8662 14.4638 15 15.2547M15 7C15 9.20914 13.2091 11 11 11C8.79086 11 7 9.20914 7 7C7 4.79086 8.79086 3 11 3C13.2091 3 15 4.79086 15 7Z" stroke="currentColor" stroke-width="2" stroke-linecap="round" stroke-linejoin="round"/></symbol><symbol id="play" viewBox="0 0 24 24" fill="none" xmlns="http://www.w3.org/2000/svg"><path d="M16.6582 9.28638C18.098 10.1862 18.8178 10.6361 19.0647 11.2122C19.2803 11.7152 19.2803 12.2847 19.0647 12.7878C18.8178 13.3638 18.098 13.8137 16.6582 14.7136L9.896 18.94C8.29805 19.9387 7.49907 20.4381 6.83973 20.385C6.26501 20.3388 5.73818 20.0469 5.3944 19.584C5 19.053 5 18.1108 5 16.2264V7.77357C5 5.88919 5 4.94701 5.3944 4.41598C5.73818 3.9531 6.26501 3.66111 6.83973 3.6149C7.49907 3.5619 8.29805 4.06126 9.896 5.05998L16.6582 9.28638Z" stroke="currentColor" stroke-width="2" stroke-linejoin="round"/></symbol><symbol id="glasses" viewBox="0 0 24 24" fill="none" xmlns="http://www.w3.org/2000/svg"><path d="M5.99992 5C5.73263 5 5.59899 5 5.48344 5.00894C4.12112 5.11436 3.00214 6.12702 2.7617 7.47208C2.7413 7.58617 2.728 7.71915 2.70141 7.98511L2.02072 14.5904M9.99992 15H13.9999M9.99992 15C9.99992 17.2091 8.20914 19 6 19C3.79086 19 2 17.2091 2 15C2 12.7909 3.79086 11 6 11C8.20914 11 9.99992 12.7909 9.99992 15ZM13.9999 15C13.9999 17.2091 15.7909 19 18 19C20.2091 19 22 17.2091 22 15C22 12.7909 20.2091 11 18 11C15.7909 11 13.9999 12.7909 13.9999 15ZM18.015 5C18.2823 5 18.4159 5 18.5315 5.00894C19.8938 5.11436 21.0127 6.12702 21.2532 7.47208C21.2736 7.58617 21.2869 7.71915 21.3135 7.98511L21.9804 14.602" stroke="currentColor" stroke-width="2" stroke-linecap="round" stroke-linejoin="round"/></symbol><symbol id="unlock" viewBox="0 0 24 24" fill="none" xmlns="http://www.w3.org/2000/svg"><path d="M16.584 6C15.8124 4.2341 14.0503 3 12 3C9.23858 3 7 5.23858 7 8V10.0288M7 10.0288C7.47142 10 8.05259 10 8.8 10H15.2C16.8802 10 17.7202 10 18.362 10.327C18.9265 10.6146 19.3854 11.0735 19.673 11.638C20 12.2798 20 13.1198 20 14.8V16.2C20 17.8802 20 18.7202 19.673 19.362C19.3854 19.9265 18.9265 20.3854 18.362 20.673C17.7202 21 16.8802 21 15.2 21H8.8C7.11984 21 6.27976 21 5.63803 20.673C5.07354 20.3854 4.6146 19.9265 4.32698 19.362C4 18.7202 4 17.8802 4 16.2V14.8C4 13.1198 4 12.2798 4.32698 11.638C4.6146 11.0735 5.07354 10.6146 5.63803 10.327C5.99429 10.1455 6.41168 10.0647 7 10.0288Z" stroke="currentColor" stroke-width="2" stroke-linecap="round" stroke-linejoin="round"/></symbol><symbol id="clipboard" viewBox="0 0 24 24" fill="none" xmlns="http://www.w3.org/2000/svg"><path d="M8 5.00005C7.01165 5.00082 6.49359 5.01338 6.09202 5.21799C5.71569 5.40973 5.40973 5.71569 5.21799 6.09202C5 6.51984 5 7.07989 5 8.2V17.8C5 18.9201 5 19.4802 5.21799 19.908C5.40973 20.2843 5.71569 20.5903 6.09202 20.782C6.51984 21 7.07989 21 8.2 21H15.8C16.9201 21 17.4802 21 17.908 20.782C18.2843 20.5903 18.5903 20.2843 18.782 19.908C19 19.4802 19 18.9201 19 17.8V8.2C19 7.07989 19 6.51984 18.782 6.09202C18.5903 5.71569 18.2843 5.40973 17.908 5.21799C17.5064 5.01338 16.9884 5.00082 16 5.00005M8 5.00005V7H16V5.00005M8 5.00005V4.70711C8 4.25435 8.17986 3.82014 8.5 3.5C8.82014 3.17986 9.25435 3 9.70711 3H14.2929C14.7456 3 15.1799 3.17986 15.5 3.5C15.8201 3.82014 16 4.25435 16 4.70711V5.00005" stroke="currentColor" stroke-width="2" stroke-linecap="round" stroke-linejoin="round"/></symbol><symbol id="circle-plus" viewBox="0 0 24 24" fill="none" xmlns="http://www.w3.org/2000/svg"><path d="M8 12H16M12 8V16M21 12C21 16.9706 16.9706 21 12 21C7.02944 21 3 16.9706 3 12C3 7.02944 7.02944 3 12 3C16.9706 3 21 7.02944 21 12Z" stroke="currentColor" stroke-width="2" stroke-linecap="round" stroke-linejoin="round"/></symbol><symbol id="badge-check" viewBox="0 0 24 24" fill="none" xmlns="http://www.w3.org/2000/svg"><path d="M8.5 12.5L10.0089 14.0089C10.3526 14.3526 10.5245 14.5245 10.7198 14.5822C10.8914 14.6328 11.0749 14.6245 11.2412 14.5585C11.4305 14.4834 11.5861 14.2967 11.8973 13.9232L16 9M16.3287 4.75855C17.0676 4.77963 17.8001 5.07212 18.364 5.636C18.9278 6.19989 19.2203 6.9324 19.2414 7.67121C19.2623 8.40232 19.2727 8.76787 19.2942 8.85296C19.3401 9.0351 19.2867 8.90625 19.383 9.06752C19.428 9.14286 19.6792 9.40876 20.1814 9.94045C20.6889 10.4778 21 11.2026 21 12C21 12.7974 20.6889 13.5222 20.1814 14.0595C19.6792 14.5912 19.428 14.8571 19.383 14.9325C19.2867 15.0937 19.3401 14.9649 19.2942 15.147C19.2727 15.2321 19.2623 15.5977 19.2414 16.3288C19.2203 17.0676 18.9278 17.8001 18.364 18.364C17.8001 18.9279 17.0676 19.2204 16.3287 19.2414C15.5976 19.2623 15.2321 19.2727 15.147 19.2942C14.9649 19.3401 15.0937 19.2868 14.9325 19.3831C14.8571 19.4281 14.5912 19.6792 14.0595 20.1814C13.5222 20.6889 12.7974 21 12 21C11.2026 21 10.4778 20.6889 9.94047 20.1814C9.40874 19.6792 9.14287 19.4281 9.06753 19.3831C8.90626 19.2868 9.0351 19.3401 8.85296 19.2942C8.76788 19.2727 8.40225 19.2623 7.67121 19.2414C6.93238 19.2204 6.19986 18.9279 5.63597 18.364C5.07207 17.8001 4.77959 17.0676 4.75852 16.3287C4.73766 15.5976 4.72724 15.2321 4.70578 15.147C4.65985 14.9649 4.71322 15.0937 4.61691 14.9324C4.57192 14.8571 4.32082 14.5912 3.81862 14.0595C3.31113 13.5222 3 12.7974 3 12C3 11.2026 3.31113 10.4778 3.81862 9.94048C4.32082 9.40876 4.57192 9.14289 4.61691 9.06755C4.71322 8.90628 4.65985 9.03512 4.70578 8.85299C4.72724 8.7679 4.73766 8.40235 4.75852 7.67126C4.77959 6.93243 5.07207 6.1999 5.63597 5.636C6.19986 5.07211 6.93238 4.77963 7.67121 4.75855C8.40232 4.73769 8.76788 4.72727 8.85296 4.70581C9.0351 4.65988 8.90626 4.71325 9.06753 4.61694C9.14287 4.57195 9.40876 4.32082 9.94047 3.81863C10.4778 3.31113 11.2026 3 12 3C12.7974 3 13.5222 3.31114 14.0595 3.81864C14.5913 4.32084 14.8571 4.57194 14.9325 4.61693C15.0937 4.71324 14.9649 4.65988 15.147 4.70581C15.2321 4.72726 15.5976 4.73769 16.3287 4.75855Z" stroke="currentColor" stroke-width="2" stroke-linecap="round" stroke-linejoin="round"/></symbol><symbol id="triangle-exclamation" viewBox="0 0 24 24" fill="none" xmlns="http://www.w3.org/2000/svg"><path d="M12 17.0001H12.01M12 10.0001V14.0001M6.41209 21.0001H17.588C19.3696 21.0001 20.2604 21.0001 20.783 20.6254C21.2389 20.2985 21.5365 19.7951 21.6033 19.238C21.6798 18.5996 21.2505 17.819 20.3918 16.2579L14.8039 6.09805C13.8897 4.4359 13.4326 3.60482 12.8286 3.32987C12.3022 3.09024 11.6978 3.09024 11.1714 3.32987C10.5674 3.60482 10.1103 4.4359 9.19614 6.09805L3.6082 16.2579C2.74959 17.819 2.32028 18.5996 2.39677 19.238C2.46351 19.7951 2.76116 20.2985 3.21709 20.6254C3.7396 21.0001 4.63043 21.0001 6.41209 21.0001Z" stroke="currentColor" stroke-width="2" stroke-linecap="round" stroke-linejoin="round"/></symbol><symbol id="search-alt-1" viewBox="0 0 24 24" fill="none" xmlns="http://www.w3.org/2000/svg"><path d="M14.9536 14.9458L21 21M17 10C17 13.866 13.866 17 10 17C6.13401 17 3 13.866 3 10C3 6.13401 6.13401 3 10 3C13.866 3 17 6.13401 17 10Z" stroke="currentColor" stroke-width="2" stroke-linecap="round" stroke-linejoin="round"/></symbol><symbol id="gift" viewBox="0 0 24 24" fill="none" xmlns="http://www.w3.org/2000/svg"><path d="M12 7V20M12 7H8.46429C7.94332 7 7.4437 6.78929 7.07533 6.41421C6.70695 6.03914 6.5 5.53043 6.5 5C6.5 4.46957 6.70695 3.96086 7.07533 3.58579C7.4437 3.21071 7.94332 3 8.46429 3C11.2143 3 12 7 12 7ZM12 7H15.5357C16.0567 7 16.5563 6.78929 16.9247 6.41421C17.293 6.03914 17.5 5.53043 17.5 5C17.5 4.46957 17.293 3.96086 16.9247 3.58579C16.5563 3.21071 16.0567 3 15.5357 3C12.7857 3 12 7 12 7ZM5 12H19V17.8C19 18.9201 19 19.4802 18.782 19.908C18.5903 20.2843 18.2843 20.5903 17.908 20.782C17.4802 21 16.9201 21 15.8 21H8.2C7.07989 21 6.51984 21 6.09202 20.782C5.71569 20.5903 5.40973 20.2843 5.21799 19.908C5 19.4802 5 18.9201 5 17.8V12ZM4.6 12H19.4C19.9601 12 20.2401 12 20.454 11.891C20.6422 11.7951 20.7951 11.6422 20.891 11.454C21 11.2401 21 10.9601 21 10.4V8.6C21 8.03995 21 7.75992 20.891 7.54601C20.7951 7.35785 20.6422 7.20487 20.454 7.10899C20.2401 7 19.9601 7 19.4 7H4.6C4.03995 7 3.75992 7 3.54601 7.10899C3.35785 7.20487 3.20487 7.35785 3.10899 7.54601C3 7.75992 3 8.03995 3 8.6V10.4C3 10.9601 3 11.2401 3.10899 11.454C3.20487 11.6422 3.35785 11.7951 3.54601 11.891C3.75992 12 4.03995 12 4.6 12Z" stroke="currentColor" stroke-width="2" stroke-linecap="round" stroke-linejoin="round"/></symbol><symbol id="search-alt" viewBox="0 0 24 24" fill="none" xmlns="http://www.w3.org/2000/svg"><path d="M16.6725 16.6412L21 21M19 11C19 15.4183 15.4183 19 11 19C6.58172 19 3 15.4183 3 11C3 6.58172 6.58172 3 11 3C15.4183 3 19 6.58172 19 11Z" stroke="currentColor" stroke-width="2" stroke-linecap="round" stroke-linejoin="round"/></symbol><symbol id="laptop-medical" viewBox="0 0 24 24" fill="none" xmlns="http://www.w3.org/2000/svg"><path d="M10 10H12M12 10H14M12 10V8M12 10V12M21 16V7.2C21 6.0799 21 5.51984 20.782 5.09202C20.5903 4.71569 20.2843 4.40973 19.908 4.21799C19.4802 4 18.9201 4 17.8 4H6.2C5.07989 4 4.51984 4 4.09202 4.21799C3.71569 4.40973 3.40973 4.71569 3.21799 5.09202C3 5.51984 3 6.0799 3 7.2V16M2 16H22V16.8C22 17.9201 22 18.4802 21.782 18.908C21.5903 19.2843 21.2843 19.5903 20.908 19.782C20.4802 20 19.9201 20 18.8 20H5.2C4.0799 20 3.51984 20 3.09202 19.782C2.71569 19.5903 2.40973 19.2843 2.21799 18.908C2 18.4802 2 17.9201 2 16.8V16Z" stroke="currentColor" stroke-width="2" stroke-linecap="round" stroke-linejoin="round"/></symbol><symbol id="trophy" viewBox="0 0 24 24" fill="none" xmlns="http://www.w3.org/2000/svg"><path d="M12 14V17M12 14C9.58104 14 7.56329 12.2822 7.10002 10M12 14C14.419 14 16.4367 12.2822 16.9 10M17 5H19.75C19.9823 5 20.0985 5 20.1951 5.01921C20.5918 5.09812 20.9019 5.40822 20.9808 5.80491C21 5.90151 21 6.01767 21 6.25C21 6.94698 21 7.29547 20.9424 7.58527C20.7056 8.77534 19.7753 9.70564 18.5853 9.94236C18.2955 10 17.947 10 17.25 10H17H16.9M7 5H4.25C4.01767 5 3.90151 5 3.80491 5.01921C3.40822 5.09812 3.09812 5.40822 3.01921 5.80491C3 5.90151 3 6.01767 3 6.25C3 6.94698 3 7.29547 3.05764 7.58527C3.29436 8.77534 4.22466 9.70564 5.41473 9.94236C5.70453 10 6.05302 10 6.75 10H7H7.10002M12 17C12.93 17 13.395 17 13.7765 17.1022C14.8117 17.3796 15.6204 18.1883 15.8978 19.2235C16 19.605 16 20.07 16 21H8C8 20.07 8 19.605 8.10222 19.2235C8.37962 18.1883 9.18827 17.3796 10.2235 17.1022C10.605 17 11.07 17 12 17ZM7.10002 10C7.03443 9.67689 7 9.34247 7 9V4.57143C7 4.03831 7 3.77176 7.09903 3.56612C7.19732 3.36201 7.36201 3.19732 7.56612 3.09903C7.77176 3 8.03831 3 8.57143 3H15.4286C15.9617 3 16.2282 3 16.4339 3.09903C16.638 3.19732 16.8027 3.36201 16.901 3.56612C17 3.77176 17 4.03831 17 4.57143V9C17 9.34247 16.9656 9.67689 16.9 10" stroke="currentColor" stroke-width="2" stroke-linecap="round" stroke-linejoin="round"/></symbol><symbol id="circle-xmark" viewBox="0 0 24 24" fill="none" xmlns="http://www.w3.org/2000/svg"><path d="M9 9L15 15M15 9L9 15M21 12C21 16.9706 16.9706 21 12 21C7.02944 21 3 16.9706 3 12C3 7.02944 7.02944 3 12 3C16.9706 3 21 7.02944 21 12Z" stroke="currentColor" stroke-width="2" stroke-linecap="round" stroke-linejoin="round"/></symbol><symbol id="address-card" viewBox="0 0 24 24" fill="none" xmlns="http://www.w3.org/2000/svg"><path d="M18 9H14M18 12H14M12 15.5C11.7164 14.3589 10.481 13.5 9 13.5C7.519 13.5 6.28364 14.3589 6 15.5M6.2 19H17.8C18.9201 19 19.4802 19 19.908 18.782C20.2843 18.5903 20.5903 18.2843 20.782 17.908C21 17.4802 21 16.9201 21 15.8V8.2C21 7.0799 21 6.51984 20.782 6.09202C20.5903 5.71569 20.2843 5.40973 19.908 5.21799C19.4802 5 18.9201 5 17.8 5H6.2C5.0799 5 4.51984 5 4.09202 5.21799C3.71569 5.40973 3.40973 5.71569 3.21799 6.09202C3 6.51984 3 7.07989 3 8.2V15.8C3 16.9201 3 17.4802 3.21799 17.908C3.40973 18.2843 3.71569 18.5903 4.09202 18.782C4.51984 19 5.07989 19 6.2 19ZM10 9.5C10 10.0523 9.55228 10.5 9 10.5C8.44772 10.5 8 10.0523 8 9.5C8 8.94772 8.44772 8.5 9 8.5C9.55228 8.5 10 8.94772 10 9.5Z" stroke="currentColor" stroke-width="2" stroke-linecap="round" stroke-linejoin="round"/></symbol></svg>